<?xml version="1.0" encoding="UTF-8" standalone="no"?>
<!-- Created with Inkscape (http://www.inkscape.org/) -->

<svg
   width="225.07098mm"
   height="122.82793mm"
   viewBox="0 0 225.07098 122.82793"
   version="1.1"
   id="svg5"
   xml:space="preserve"
   inkscape:version="1.2.2 (b0a8486541, 2022-12-01)"
   sodipodi:docname="biblio-bridge.svg"
   xmlns:inkscape="http://www.inkscape.org/namespaces/inkscape"
   xmlns:sodipodi="http://sodipodi.sourceforge.net/DTD/sodipodi-0.dtd"
   xmlns="http://www.w3.org/2000/svg"
   xmlns:svg="http://www.w3.org/2000/svg"><sodipodi:namedview
     id="namedview7"
     pagecolor="#ffffff"
     bordercolor="#000000"
     borderopacity="0.25"
     inkscape:showpageshadow="2"
     inkscape:pageopacity="0.0"
     inkscape:pagecheckerboard="0"
     inkscape:deskcolor="#d1d1d1"
     inkscape:document-units="mm"
     showgrid="false"
     inkscape:zoom="1.5061194"
     inkscape:cx="421.61333"
     inkscape:cy="212.46656"
     inkscape:window-width="2194"
     inkscape:window-height="1155"
     inkscape:window-x="0"
     inkscape:window-y="0"
     inkscape:window-maximized="1"
     inkscape:current-layer="g2804" /><defs
     id="defs2" /><g
     inkscape:label="Layer 1"
     inkscape:groupmode="layer"
     id="layer1"
     transform="translate(-12.725204,-30.468825)"><g
       id="g2804"><g
         id="g9840"><rect
           style="fill:#ffffff;fill-opacity:1;fill-rule:evenodd;stroke:none;stroke-width:0.499999;stroke-linecap:round;stroke-linejoin:round;stroke-dasharray:none;stroke-opacity:1"
           id="rect9743"
           width="53.580025"
           height="27.580538"
           x="177.68141"
           y="95.116203" /><g
           id="g2897"><path
             style="fill:#6464ff;stroke-width:0.5;fill-opacity:1;stroke:#6464ff;stroke-opacity:1;stroke-dasharray:none"
             d="m 41.106257,114.8107 c -2.933306,-0.82934 -4.943624,-3.99061 -4.306931,-6.77274 0.147492,-0.64448 0.125564,-0.82634 -0.124906,-1.03588 -0.167093,-0.13979 -2.271312,-1.5408 -4.676039,-3.11335 l -4.372235,-2.85918 -1.503605,-0.0215 c -1.845882,-0.0264 -3.173581,-0.60009 -4.354993,-1.88177 -1.151806,-1.24956 -1.566856,-2.30461 -1.566856,-3.98292 0,-1.584 0.386243,-2.65744 1.351962,-3.75733 L 22.139372,90.7178 20.044416,83.87976 17.94946,77.04173 17.102936,76.82717 c -1.646443,-0.41729 -3.206083,-1.76993 -3.956619,-3.43148 -0.601279,-1.33112 -0.553749,-3.34314 0.111076,-4.70199 0.953751,-1.949399 2.773374,-3.214579 4.950597,-3.442139 l 1.130512,-0.11816 1.645942,-5.04431 1.645942,-5.0443 -0.908803,-0.97674 c -1.278999,-1.3746 -1.706964,-2.41263 -1.706964,-4.14024 0,-1.67831 0.415051,-2.73336 1.566857,-3.98292 1.650145,-1.7902 4.235746,-2.38847 6.525328,-1.50987 0.202659,0.0778 1.539019,-0.95248 4.279247,-3.29901 l 3.984563,-3.41209 0.01174,-1.38747 c 0.0198,-2.34111 1.261193,-4.28725 3.403199,-5.33524 1.363448,-0.66707 3.370395,-0.71252 4.711895,-0.10669 1.05085,0.47456 2.37717,1.66106 2.86091,2.55932 0.19484,0.3618 0.48175,0.66065 0.63757,0.66411 0.15582,0.003 1.5656,0.19942 3.13284,0.43546 l 2.84954,0.42917 0.45323,-0.89442 c 0.84455,-1.66664 2.0792,-2.60454 4.26519,-3.24002 1.43832,-0.41813 5.56914,-0.28208 7.92725,0.26109 7.33731,1.69009 13.35902,5.84939 16.466,11.37335 0.40099,0.71293 0.85467,1.29898 1.00817,1.30235 0.59682,0.0131 2.27088,0.95349 3.1331,1.76 0.60322,0.56424 1.11295,1.29636 1.52892,2.19599 0.57737,1.2487 0.62979,1.51952 0.70134,3.62385 l 0.0773,2.2743 0.89824,0.5764 c 1.24043,0.79598 2.15742,1.86518 2.84593,3.31834 0.55634,1.17417 0.58346,1.33797 0.57373,3.46529 -0.009,1.90052 -0.0815,2.43817 -0.48905,3.61216 l -0.47884,1.3793 0.8154,1.6909 c 1.63901,3.398869 2.36844,8.012639 1.9586,12.388539 -0.52055,5.55789 -2.26402,9.69928 -5.3156,12.62656 -1.20552,1.15641 -1.23562,1.20867 -1.41186,2.45132 -0.51739,3.64809 -2.40449,5.82032 -5.70814,6.57062 l -1.05323,0.2392 -0.58415,1.3888 c -2.09057,4.97024 -6.62462,8.41796 -13.01145,9.89401 -2.35754,0.54484 -7.91757,0.58596 -9.9176,0.0733 -1.79355,-0.45969 -3.16691,-1.30432 -3.8986,-2.39767 -0.32328,-0.48307 -0.61634,-0.96038 -0.65126,-1.06069 -0.0389,-0.11168 -1.14554,-0.006 -2.85456,0.27188 -1.5351,0.24985 -2.80219,0.45556 -2.81577,0.45713 -0.0136,10e-4 -0.24555,0.45431 -0.5155,1.00607 -0.57289,1.17094 -1.84744,2.41578 -2.99169,2.92193 -1.05581,0.46704 -2.760297,0.59984 -3.827176,0.2982 z m 3.306822,-2.0926 c 2.54638,-1.26892 3.0735,-4.51065 1.06116,-6.526 -0.93883,-0.94023 -1.8274,-1.25323 -3.263031,-1.14938 -1.467758,0.10616 -2.488251,0.80609 -3.202478,2.19649 -1.80214,3.50826 1.876005,7.23713 5.404349,5.47889 z m 21.17088,-0.83547 c 4.67302,-0.53091 8.40595,-2.07773 11.1074,-4.6026 1.65124,-1.54331 3.24516,-4.07803 3.69981,-5.8836 0.11956,-0.47482 0.30122,-0.91511 0.40369,-0.97844 0.10247,-0.0633 0.80626,-0.2228 1.56399,-0.35439 1.56472,-0.27172 2.80965,-0.91924 3.4951,-1.81792 0.73826,-0.96791 1.22531,-2.25041 1.34618,-3.54476 0.21567,-2.30962 -0.97427,-3.64891 -3.60124,-4.05322 -0.69764,-0.10737 -1.37309,-0.28041 -1.50102,-0.38454 -0.32023,-0.26065 -0.29207,-0.97917 0.0495,-1.26263 0.31733,-0.26336 2.12707,-0.1623 3.29513,0.18401 0.87535,0.25952 2.17144,1.2383 2.65623,2.00593 0.20468,0.32409 0.47047,0.59248 0.59064,0.59643 0.44279,0.0145 2.34433,-2.5542 3.23167,-4.36553 1.296,-2.64554 1.84992,-5.0369 1.98263,-8.55933 0.16913,-4.48904 -0.45109,-7.72649 -2.10944,-11.010909 -0.50665,-1.00344 -0.81995,-1.84726 -0.75994,-2.04679 0.0562,-0.18673 0.27332,-0.80875 0.4826,-1.38227 0.90399,-2.47736 0.87785,-4.96606 -0.0693,-6.5969 -0.5949,-1.02433 -1.96363,-2.25171 -3.0289,-2.71609 -3.41081,-1.48689 -9.03398,0.4565 -10.46934,3.61825 -1.14752,2.52769 0.34739,5.38565 3.13143,5.98668 1.33968,0.28922 1.45157,1.77423 0.13368,1.77423 -1.48418,0 -3.86344,-1.39801 -4.54426,-2.67014 -0.7648,-1.42903 -5.32785,-1.50792 -7.58439,-0.13112 -0.49025,0.29912 -0.61305,0.51444 -0.71598,1.25552 -0.0683,0.49197 -0.28728,1.56434 -0.48654,2.38306 -0.38566,1.584619 -0.81817,2.176039 -1.46722,2.006309 -0.69223,-0.18102 -0.73579,-0.61923 -0.24642,-2.478479 0.39168,-1.4881 0.45293,-2.07759 0.39556,-3.80749 -0.0585,-1.76341 -0.13791,-2.19174 -0.57371,-3.09371 -1.27186,-2.63232 -4.47702,-4.30932 -9.01338,-4.71597 l -1.34902,-0.12093 v 24.954449 24.95444 l 0.63927,0.26711 c 2.70037,1.12829 7.51475,1.68406 10.47255,1.20894 2.89352,-0.46478 5.73595,-1.83908 6.93503,-3.35304 1.71769,-2.16876 1.73305,-4.30344 0.0444,-6.17633 -0.90177,-1.00018 -1.90288,-1.44612 -3.25801,-1.45127 -2.27353,-0.009 -3.9789,1.44798 -4.34014,3.70705 -0.14669,0.91734 -0.62822,1.27267 -1.30611,0.96381 -0.3548,-0.16166 -0.44164,-0.34377 -0.44164,-0.92611 0,-2.23655 1.95321,-4.67363 4.2391,-5.28927 0.75585,-0.20356 0.79118,-0.24357 0.68808,-0.77913 -0.21952,-1.14028 -1.27816,-2.9513 -2.08357,-3.56436 -1.35825,-1.03386 -2.66669,-1.41742 -4.94792,-1.45043 -2.08327,-0.0301 -2.35173,-0.13131 -2.35858,-0.88879 -0.005,-0.61367 0.73371,-0.89439 2.3553,-0.89439 2.97905,0 5.12047,0.79645 6.73698,2.50568 1.03194,1.09112 1.53138,2.02711 1.94587,3.64675 0.27209,1.0632 0.30201,1.09138 1.66987,1.57298 2.59768,0.91459 4.44835,3.77111 4.1464,6.39997 -0.17365,1.51186 -0.92685,2.90576 -2.33005,4.31207 -2.14046,2.14521 -5.39498,3.41755 -9.31719,3.64253 -2.75243,0.15787 -5.22476,-0.21265 -9.16406,-1.37342 -0.27648,-0.0815 -0.32563,0.0319 -0.32563,0.75097 0,0.4658 0.0893,1.08263 0.19847,1.37072 0.82455,2.17624 4.69857,3.23103 9.7564,2.65641 z m 10.32701,-25.08036 c -2.32759,-0.61302 -3.44795,-1.56658 -2.78258,-2.3683 0.33066,-0.39842 0.95807,-0.3288 2.06952,0.22964 1.28211,0.64419 3.34274,0.79944 4.83868,0.36456 1.30938,-0.38065 2.6633,-1.55143 3.24924,-2.80974 0.4888,-1.04967 0.57951,-2.90167 0.19343,-3.94885 -0.35387,-0.95981 -1.34981,-2.2347 -2.1695,-2.77714 l -0.76294,-0.5049 -0.30462,0.44867 c -1.02527,1.51012 -3.12457,2.76634 -5.44766,3.25989 -1.80773,0.38405 -5.27094,0.2541 -7.28353,-0.27332 -4.21653,-1.10496 -6.79717,-3.86692 -7.00747,-7.49981 -0.0891,-1.5399 0.0802,-2.01579 0.71721,-2.01579 0.5818,0 0.86067,0.48977 0.97481,1.71206 0.34582,3.70338 3.15442,5.95847 8.04326,6.45813 5.48699,0.5608 8.79898,-1.32784 9.67556,-5.51741 0.14069,-0.67245 0.36507,-1.29194 0.49862,-1.37665 0.43456,-0.27562 0.87954,-0.16877 1.17499,0.28214 0.25463,0.38861 0.25916,0.58937 0.0376,1.66667 l -0.25189,1.22484 1.00188,0.69002 c 0.55104,0.37951 1.33068,1.14918 1.73255,1.71038 l 0.73066,1.02036 0.38365,-0.8673 c 0.63609,-1.438 0.82163,-2.95967 0.56515,-4.6351 -0.26081,-1.70372 -0.11955,-2.0498 0.79959,-1.95898 0.49484,0.0489 0.59884,0.16257 0.81732,0.89334 0.16574,0.55435 0.22622,1.49761 0.17899,2.79109 -0.0779,2.1324 -0.46394,3.51032 -1.4108,5.03535 -0.40957,0.65967 -0.5506,1.15706 -0.63308,2.23287 -0.26384,3.44122 -2.15741,5.73081 -5.44854,6.58803 -1.39544,0.36347 -2.65478,0.34698 -4.18012,-0.0547 z m -24.65457,21.55222 c 1.22807,-0.20095 2.29566,-0.36689 2.37242,-0.36875 0.0768,-0.002 0.13955,-3.43642 0.13955,-7.63235 v -7.62897 h -1.48858 c -1.31051,0 -1.48858,0.0402 -1.48858,0.33562 0,0.63825 -0.95146,2.24145 -1.78773,3.0123 -0.89717,0.82698 -2.13393,1.4792 -2.81755,1.48588 -0.23027,0.002 -0.41931,0.025 -0.4201,0.0506 -7.5e-4,0.0256 -0.25199,1.33724 -0.55822,2.91478 -0.30623,1.57754 -0.55678,2.88837 -0.55678,2.91296 0,0.0246 0.36287,0.25735 0.80637,0.51726 1.49018,0.8733 2.90069,2.83283 2.91099,4.04404 0.007,0.85761 -0.0957,0.8449 2.88821,0.35663 z m -12.613377,-3.55195 c 0.982143,-0.90531 2.033087,-1.40167 3.331489,-1.57346 l 0.952088,-0.12598 0.51109,-2.68726 c 0.28109,-1.47799 0.48064,-2.70982 0.44345,-2.73738 -0.0372,-0.0276 -0.46301,-0.19661 -0.94625,-0.37564 -1.216973,-0.45088 -2.623715,-1.77163 -3.249673,-3.05104 -0.430402,-0.87971 -0.517476,-1.2976 -0.511887,-2.45664 0.0081,-1.67108 0.426727,-2.73979 1.551248,-3.95975 l 0.758715,-0.82311 -1.439905,-3.46846 -1.439906,-3.46846 -0.837325,0.10576 c -0.460529,0.0582 -1.188985,0.0253 -1.618792,-0.0731 l -0.781468,-0.17885 -2.893459,5.10109 c -1.591403,2.8056 -2.893461,5.15183 -2.893461,5.21385 0,0.062 0.342392,0.48423 0.76087,0.93822 1.121622,1.21681 1.536003,2.28542 1.536003,3.96101 0,1.71181 -0.423946,2.76828 -1.626972,4.05441 l -0.844998,0.90337 4.13462,2.71937 c 2.274041,1.49565 4.167124,2.72467 4.206849,2.73114 0.03972,0.006 0.443678,-0.33063 0.897674,-0.74911 z M 27.852644,98.76268 c 3.033324,-1.51157 3.060236,-5.72318 0.04633,-7.25044 -2.874029,-1.45638 -6.140794,0.66704 -5.911119,3.84226 0.215655,2.98141 3.218912,4.72667 5.864789,3.40818 z m 18.979375,-3.3493 c 3.87579,-1.93139 2.50851,-7.71291 -1.82403,-7.71291 -4.217807,0 -5.609698,5.71264 -1.86814,7.66726 1.29277,0.67534 2.40103,0.68905 3.69217,0.0456 z m 6.93635,-12.82989 v -8.28022 l -0.60473,0.003 c -0.33261,0.002 -2.48872,0.1678 -4.79136,0.36886 -2.30265,0.20105 -4.41952,0.36704 -4.70417,0.36885 -0.28465,0.002 -0.54755,0.10796 -0.58423,0.23588 -0.418269,1.45882 -0.839072,2.20137 -1.782819,3.14598 l -1.051703,1.05267 1.397972,3.36142 c 1.37016,3.29454 1.40747,3.35874 1.87511,3.22699 0.26242,-0.0739 1.0214,-0.12769 1.68661,-0.11947 1.48251,0.0183 2.62489,0.49 3.79171,1.56554 0.83855,0.77295 1.79045,2.37579 1.79045,3.01481 0,0.29547 0.17807,0.33561 1.48858,0.33561 h 1.48858 z m -26.926888,6.73099 1.076988,0.17534 2.53341,-4.47656 c 1.393376,-2.46211 2.706181,-4.78246 2.917345,-5.15633 L 33.753156,79.17716 32.951992,78.308 c -0.877435,-0.9519 -1.408532,-2.00962 -1.59781,-3.18215 l -0.12253,-0.75904 -3.012687,-0.5162 c -1.656977,-0.28391 -3.230339,-0.55735 -3.496359,-0.60764 -0.415415,-0.0785 -0.552859,0.0266 -0.973938,0.74514 -0.643453,1.09797 -1.99277,2.26883 -3.090738,2.68197 l -0.880288,0.33124 1.940785,6.33989 1.940786,6.33989 1.052641,-0.27098 c 0.793597,-0.20429 1.317675,-0.22783 2.129627,-0.0956 z M 39.091059,77.87693 c 3.7619,-1.96524 2.36146,-7.66725 -1.88312,-7.66725 -3.253036,0 -5.145622,3.48014 -3.414928,6.27947 0.68607,1.10969 2.114573,1.90771 3.414928,1.90771 0.610483,0 1.198797,-0.16243 1.88312,-0.51993 z M 20.409754,74.75936 c 2.552864,-1.27215 3.073676,-4.5105 1.051159,-6.53601 -2.649889,-2.653799 -7.185769,-0.602389 -6.915949,3.12783 0.215655,2.98141 3.218912,4.72667 5.86479,3.40818 z m 27.962525,-1.85163 c 1.89328,-0.15085 3.88193,-0.32325 4.41921,-0.38311 l 0.97688,-0.10885 v -7.708609 -7.70861 h -2.88412 c -2.65542,0 -2.88412,0.0266 -2.88412,0.33561 0,0.63903 -0.9519,2.24186 -1.79046,3.01482 -1.05013,0.96797 -2.0723,1.42803 -3.596022,1.61848 l -1.184744,0.14808 -0.889825,3.3493 -0.889828,3.349299 0.407478,0.27911 c 1.470819,1.00746 2.919451,2.97114 2.919451,3.95744 0,0.31079 0.10696,0.33708 0.97688,0.24015 0.53728,-0.0599 2.52593,-0.23226 4.41922,-0.38311 z M 31.789029,71.9704 c 0.130909,-0.36203 0.677757,-1.13066 1.215216,-1.70808 l 0.977199,-1.04985 -3.239228,-6.718339 -3.239227,-6.71834 h -1.638828 -1.638827 l -1.607776,4.93756 -1.607776,4.93756 0.423598,0.27911 c 1.680785,1.10747 2.817645,2.815569 3.040309,4.567989 l 0.119385,0.93959 3.190722,0.57488 c 1.754898,0.31619 3.320433,0.58417 3.478969,0.59552 0.17052,0.0122 0.385458,-0.24821 0.526264,-0.6376 z m 6.150252,-3.7417 c 0.04405,-0.039 0.47629,-1.556029 0.960535,-3.371149 l 0.880448,-3.30023 -0.402318,-0.27911 c -1.046845,-0.72624 -2.022489,-1.80939 -2.489376,-2.76368 -0.732711,-1.4976 -0.730553,-3.39949 0.0056,-4.90405 0.81027,-1.65613 2.342774,-2.86099 4.335318,-3.40842 0.135001,-0.0371 0.250796,-1.14667 0.332826,-3.18924 0.06919,-1.7228 0.173354,-3.48439 0.231481,-3.91464 0.100393,-0.74311 0.07907,-0.78802 -0.425862,-0.89675 -1.346273,-0.28992 -2.242667,-0.76466 -3.206471,-1.69817 -0.565288,-0.54753 -1.05781,-0.9955 -1.094494,-0.9955 -0.06794,0 -6.182435,5.18262 -6.807387,5.76992 -0.331484,0.31151 -0.321274,0.35041 0.308491,1.17545 0.858973,1.12531 1.131314,1.98993 1.123767,3.56771 -0.0077,1.6158 -0.458571,2.71009 -1.634485,3.96723 -0.467767,0.50009 -0.851478,0.98429 -0.852691,1.07602 -0.0013,0.0917 1.437989,3.16259 3.198221,6.82414 l 3.200427,6.657359 1.127958,-0.12297 c 0.620378,-0.0676 1.164,-0.1549 1.208048,-0.19392 z m 31.744718,-6.787879 c 1.27998,-0.4562 4.0532,-0.66369 5.22652,-0.39104 l 0.76724,0.17828 0.0971,-1.07122 c 0.15121,-1.66758 0.92656,-3.17085 2.29636,-4.45222 2.03316,-1.90192 4.49405,-2.79196 7.73328,-2.79691 l 1.79942,-0.003 0.12685,-0.57753 c 0.33035,-1.50409 -0.47918,-4.2701 -1.56855,-5.35948 -1.18208,-1.18207 -2.25739,-1.58 -4.29697,-1.59013 -1.47762,-0.007 -1.89361,0.0586 -2.53509,0.40171 -0.97309,0.52053 -1.68348,1.36002 -2.2507,2.65969 -0.65977,1.51173 -0.70497,1.57622 -1.15125,1.64242 -1.08093,0.16034 -1.20392,-1.0136 -0.29981,-2.86155 0.93641,-1.91394 2.64882,-3.22059 4.74058,-3.61729 0.55149,-0.10458 1.03828,-0.22573 1.08176,-0.26922 0.1986,-0.19859 -1.49171,-2.40251 -3.01827,-3.93539 -2.62873,-2.63959 -5.67195,-4.48762 -9.47109,-5.75141 -2.79701,-0.93043 -4.75115,-1.28174 -7.19194,-1.29297 -2.45259,-0.0113 -3.5713,0.2808 -4.72825,1.23445 -1.33467,1.10015 -1.40342,1.4477 -1.40805,7.11726 l -0.004,5.01225 0.5117,-0.49012 c 1.33243,-1.27625 3.8324,-1.51147 6.37298,-0.59963 3.27288,1.17468 3.89071,1.36339 4.86023,1.48452 1.2729,0.15904 2.36995,-0.12081 2.96692,-0.75685 0.37275,-0.39714 0.45203,-0.67092 0.44721,-1.54449 -0.0142,-2.57975 -2.09809,-4.11478 -6.38978,-4.70692 -1.78727,-0.24659 -2.07065,-0.38236 -2.07065,-0.99206 0,-0.7219 0.43319,-0.90053 1.91174,-0.78833 3.98519,0.30244 7.06427,2.00073 7.95952,4.39015 0.78479,2.09461 0.378,4.2815 -0.9846,5.29317 -1.79029,1.32921 -4.04174,1.20058 -8.79363,-0.5024 -2.18481,-0.78299 -3.44685,-0.86571 -4.55815,-0.29876 -1.3816,0.70484 -2.22511,2.85805 -2.23058,5.69397 l -0.003,1.50703 1.72117,0.11488 c 2.13536,0.14253 4.31654,0.69106 5.91131,1.48659 l 1.21845,0.6078 0.87058,-0.9568 c 0.92004,-1.01115 2.78423,-2.11527 4.21432,-2.49604 0.73536,-0.19579 0.85497,-0.18049 1.18737,0.15191 0.26155,0.26155 0.33538,0.50615 0.25247,0.83649 -0.0943,0.37566 -0.34969,0.54422 -1.30771,0.86302 -1.3495,0.44909 -2.98669,1.53414 -3.41943,2.26625 -0.27854,0.47123 -0.26578,0.52372 0.30153,1.24 0.74724,0.94347 1.52593,2.63087 1.65371,3.58355 0.054,0.40245 0.15282,0.73173 0.21965,0.73173 0.0668,0 0.62099,-0.17802 1.23149,-0.39561 z m -25.64307,-1.75332 c 3.84932,-1.91819 2.51146,-7.7129 -1.780726,-7.7129 -4.289566,0 -5.706721,5.68457 -1.911433,7.66725 1.292765,0.67535 2.401029,0.68905 3.692159,0.0456 z m 9.72744,-13.76025 c 0,-5.06582 -0.0628,-9.21166 -0.13955,-9.21299 -0.0768,-10e-4 -1.18621,-0.16771 -2.46546,-0.36973 -3.14822,-0.49718 -2.92067,-0.54206 -3.06624,0.60473 -0.26355,2.0761 -1.86083,4.18221 -3.70634,4.88701 l -0.80781,0.30851 -0.12189,2.35642 c -0.067,1.29602 -0.1717,3.1109 -0.23258,4.03304 l -0.1107,1.67664 0.83583,0.22355 c 1.60643,0.42965 3.47952,2.29494 3.90608,3.88979 l 0.21761,0.81361 h 2.84552 2.84553 z m -26.101797,7.61987 c 3.829148,-1.90815 2.500244,-7.7129 -1.765744,-7.7129 -2.469412,0 -4.273387,1.89449 -4.099046,4.30472 0.215655,2.98141 3.218912,4.72668 5.86479,3.40818 z m 16.374357,-13.58328 c 3.84932,-1.91819 2.51146,-7.7129 -1.780726,-7.7129 -4.289566,0 -5.706721,5.68457 -1.911433,7.66725 1.292765,0.67535 2.401029,0.68905 3.692159,0.0456 z"
             id="path194" /><g
             style="fill:#6464ff;fill-opacity:1;stroke:#6464ff;stroke-opacity:1;stroke-width:5.39362747;stroke-dasharray:none"
             id="g371"
             transform="matrix(0.09270199,0,0,0.09270199,88.009488,40.976898)"><g
               id="g359"
               style="fill:#6464ff;fill-opacity:1;stroke:#6464ff;stroke-opacity:1;stroke-width:5.39362747;stroke-dasharray:none">
	<g
   id="g357"
   style="fill:#6464ff;fill-opacity:1;stroke:#6464ff;stroke-opacity:1;stroke-width:5.39362747;stroke-dasharray:none">
		<polygon
   points="597.289,644.013 356.804,644.013 356.804,758.364 597.289,714.89 "
   id="polygon351"
   style="fill:#6464ff;fill-opacity:1;stroke:#6464ff;stroke-opacity:1;stroke-width:5.39362747;stroke-dasharray:none" />
		<path
   d="m 74.835,564.788 h 75.904 c 56.023,-22.951 108.983,-53.42 156.896,-90.375 11.698,-9.021 23.086,-18.414 34.169,-28.148 V 412.506 C 274.08,476.375 192.744,525.39 104.543,555.47 c -9.825,3.349 -19.732,6.455 -29.708,9.318 z"
   id="path353"
   style="fill:#6464ff;fill-opacity:1;stroke:#6464ff;stroke-opacity:1;stroke-width:5.39362747;stroke-dasharray:none" />
		<path
   d="m 943.424,565.663 c -2.961,-1.682 -86.463,-50.145 -110.85,-66.588 -38.783,-26.148 -75.629,-54.858 -109.166,-87.512 -8.15,-7.935 -16.115,-16.088 -23.854,-24.51 -39.799,-43.312 -74.375,-91.226 -102.266,-143.038 v -48.306 h -29.793 v 41.504 h -22.359 v -7.5 -2.176 c 0,-2.272 -0.773,-4.048 -1.979,-5.324 -3.094,-3.272 -9.033,-3.272 -12.125,0 -1.207,1.276 -1.98,3.052 -1.98,5.324 v 2.176 7.5 h -46.109 v -7.5 -2.176 c 0,-2.272 -0.771,-4.048 -1.979,-5.324 -3.092,-3.272 -9.034,-3.272 -12.125,0 -1.207,1.276 -1.98,3.052 -1.98,5.324 v 2.176 7.5 h -46.107 v -7.5 -2.176 c 0,-2.272 -0.773,-4.048 -1.98,-5.324 -3.092,-3.272 -9.033,-3.272 -12.125,0 -1.207,1.276 -1.979,3.052 -1.979,5.324 v 2.176 7.5 h -17.245 c -0.256,-0.254 -0.535,-0.49 -0.826,-0.713 v -40.792 h -29.791 v 65.752 c -0.737,1.111 -1.469,2.227 -2.213,3.333 -36.378,48.132 -76.66,93.323 -120.278,135.024 -40.75,36.24 -84.75,69.051 -129.585,99.685 C 73.356,520.94 41.376,541.471 9.294,561.828 3.508,565.499 0,571.87 0,578.72 v 30.293 c 0,11.045 8.954,20 20,20 h 336.804 240.485 336.783 c 11.047,0 20,-8.955 20,-20 v -25.67 c 0,-7.41 -4.203,-14.022 -10.648,-17.68 z M 356.804,397.898 v 34.776 147.114 H 110.554 27.613 c 0.363,-0.23 2.877,-1.83 5.117,-3.258 1.079,-0.688 2.095,-1.334 2.776,-1.768 64.357,-41.051 128.306,-83.521 187.137,-132.106 28.381,-23.437 55.579,-48.288 81.044,-75.104 16.039,-16.89 31.307,-34.559 45.618,-52.962 2.533,-3.257 5.028,-6.542 7.5,-9.846 v 0 z m 177.76,181.89 H 419.529 V 379.59 c 0,-11.691 3.498,-22.56 9.493,-31.636 33.096,32.904 68.392,63.52 105.541,91.748 v 140.085 h 10e-4 z m 0,-171.463 c -30.666,-24.192 -59.89,-50.223 -87.585,-77.761 8.749,-5.381 19.043,-8.491 30.068,-8.491 31.765,0 57.517,25.751 57.517,57.518 z m 62.725,171.463 v -95.895 c 39.842,25.803 81.691,48.293 126.406,64.742 36.057,13.262 73.268,22.816 110.779,31.031 z m 127.826,-57.201 c -24.326,-9.129 -47.779,-20.379 -70.5,-33.031 -17.004,-9.469 -33.594,-19.727 -49.826,-30.481 -2.51,-1.662 -5.008,-3.337 -7.5,-5.021 V 293.871 c 41.758,67.042 94.771,126.732 154.41,178.541 14.58,13.248 29.648,25.962 45.182,38.091 23.34,18.227 47.953,35.973 74.133,50.547 0.604,0.383 1.199,0.775 1.803,1.158 -50.012,-10.203 -99.837,-21.66 -147.702,-39.621 z"
   id="path355"
   style="fill:#6464ff;fill-opacity:1;stroke:#6464ff;stroke-opacity:1;stroke-width:5.39362747;stroke-dasharray:none" />
	</g>
</g></g><path
             style="fill:#6464ff;stroke-width:0.5;fill-opacity:1;stroke:#6464ff;stroke-opacity:1;stroke-dasharray:none"
             d="m 180.57757,153.1873 c -0.72801,-0.17724 -1.16882,-0.50803 -2.55807,-1.9196 -1.40005,-1.42256 -1.69623,-1.8386 -1.86427,-2.61865 -0.11878,-0.55145 0.13009,-1.5858 0.50324,-2.09158 0.16035,-0.21734 2.57235,-2.3944 5.36002,-4.83792 2.78767,-2.44352 5.08801,-4.49706 5.11188,-4.56341 0.0243,-0.0676 -0.4107,-0.12064 -0.98878,-0.12064 -0.82002,0 -1.07329,-0.0468 -1.23224,-0.22783 -0.47995,-0.54657 -0.36247,-1.30354 0.24528,-1.58045 0.18951,-0.0863 1.14109,-0.14454 2.36338,-0.14454 h 2.04616 l 0.88265,-0.79663 c 0.48546,-0.43814 0.86058,-0.86288 0.83363,-0.94386 -0.0353,-0.10621 -2.11416,-0.16539 -7.45897,-0.21233 -8.10941,-0.0712 -7.89387,-0.0494 -8.38955,-0.8514 -0.25237,-0.40833 -0.25718,-0.7079 -0.25718,-15.9908 v -15.57468 h -1.0415 -1.04151 v 17.18484 17.18486 h 4.08337 c 3.93391,0 13.9646,0.01 14.29507,0.26982 0.42982,0.3381 -2.38546,1.03497 -2.77307,1.42263 -0.25049,0.25048 -7.44687,0.26037 -11.84234,0.26037 -4.07292,0 -4.60987,-0.0241 -4.94504,-0.2221 -0.81862,-0.48358 -0.77083,0.69134 -0.77029,-18.93524 4.8e-4,-17.50519 0.006,-17.889987 0.25463,-18.298007 0.4082,-0.66949 0.85006,-0.81999 2.40728,-0.81999 h 1.37344 v -2.34757 c 0,-3.60681 0.0629,-3.68295 3.10097,-3.75059 2.18974,-0.0487 14.72882,-0.007 15.10936,0.37319 0.33154,0.33154 0.76058,0.78423 0.42109,1.21592 -0.26923,0.34225 -12.92617,0.34302 -14.80025,0.34302 h -1.87828 v 14.190517 14.19052 h 5.5922 5.59219 l 0.0693,-0.48821 c 0.12243,-0.86264 0.56349,-3.08456 0.659,-3.31979 0.087,-0.21438 -0.17332,-0.22784 -4.40681,-0.22784 -4.75838,0 -5.01551,-0.0295 -5.27831,-0.60633 -0.20327,-0.4461 -0.18253,-0.61215 0.12527,-1.00346 l 0.26983,-0.34303 h 5.05594 5.05595 l 0.48138,-0.87877 c 0.51936,-0.94811 1.57412,-2.43162 2.00809,-2.82435 0.14761,-0.13359 0.26838,-0.29238 0.26838,-0.3529 0,-0.0605 -2.87331,-0.11 -6.38515,-0.11 h -6.38514 l -0.31955,-0.31955 c -0.17576,-0.17576 -0.31955,-0.47135 -0.31955,-0.65687 0,-0.18551 0.14379,-0.4811 0.31955,-0.65685 l 0.31955,-0.31956 h 7.54763 7.54763 l 0.75779,-0.50286 c 2.00938,-1.33342 5.35651,-2.49146 7.20113,-2.49146 h 0.53077 l -0.0371,-4.84952 -0.0371,-4.849507 -0.38004,-0.77404 c -0.68004,-1.38501 -1.90778,-2.33585 -3.43437,-2.65975 -0.46293,-0.0982 -3.04036,-0.14639 -7.83439,-0.14639 h -7.1445 l -0.26983,-0.34302 c -0.1484,-0.18867 -0.26982,-0.48159 -0.26982,-0.65094 0,-0.36188 0.38931,-0.79072 0.81476,-0.8975 0.16536,-0.0415 3.60869,-0.057 7.65188,-0.0345 l 7.35123,0.041 0.88428,0.31167 c 1.16955,0.41222 2.36178,1.22695 3.07405,2.10071 0.31806,0.39016 0.61656,0.70938 0.66335,0.70938 0.0468,0 0.34531,-0.31922 0.66335,-0.70938 0.73777,-0.90504 1.94318,-1.71223 3.14497,-2.10599 l 0.94356,-0.30915 h 11.71694 c 11.08889,0 11.73553,0.0127 12.06374,0.23546 0.66541,0.45175 0.7598,0.88188 0.7598,3.46203 v 2.35626 l 1.39952,4.8e-4 c 1.15836,4.1e-4 1.47136,0.0443 1.81632,0.25463 0.87931,0.53614 0.82,-0.82993 0.82,18.888967 0,19.59774 0.0478,18.42563 -0.77078,18.90916 -0.3467,0.2048 -1.26516,0.22211 -11.78902,0.22211 h -11.41303 l -0.5442,0.37352 c -1.38712,0.95205 -3.67561,1.90312 -5.55646,2.3092 -1.3879,0.29964 -4.81952,0.33627 -6.18394,0.066 -1.35302,-0.26801 -3.04895,-0.84819 -4.29881,-1.47062 l -1.10823,-0.55191 -0.30697,0.32041 c -0.16883,0.17621 -3.07623,3.48214 -6.46087,7.3465 -3.38464,3.86435 -6.29501,7.13711 -6.46749,7.27277 -0.32898,0.25878 -1.36616,0.61712 -1.72024,0.59434 -0.11392,-0.007 -0.38289,-0.0561 -0.5977,-0.1084 z m 0.98195,-1.96128 c 0.0629,0 1.82124,-1.94201 3.90734,-4.31558 l 3.79291,-4.31557 -1.23493,-1.23494 -1.23494,-1.23494 -4.24274,3.73164 c -2.33352,2.0524 -4.30574,3.84933 -4.38273,3.99317 -0.23166,0.43287 -0.0244,0.78095 1.22206,2.0531 1.19239,1.21687 1.56085,1.48662 1.88521,1.38007 0.0954,-0.0313 0.22487,-0.0569 0.28782,-0.0569 z m 9.33725,-12.71686 -1.0521,-1.06501 -0.76602,0.66627 -0.76603,0.66628 1.14197,1.14728 1.14197,1.14728 0.67616,-0.74854 0.67617,-0.74855 z m 15.65335,-0.62035 c 7.37867,-1.11363 12.75556,-7.98153 11.98798,-15.31226 -0.66391,-6.34076 -5.12154,-11.27894 -11.33704,-12.55923 -1.55639,-0.3206 -4.11792,-0.30027 -5.67092,0.045 -4.19245,0.93208 -7.70289,3.60399 -9.61031,7.31476 -0.59523,1.158 -1.12138,2.64859 -1.40159,3.97074 -0.24155,1.13974 -0.20071,4.19713 0.0731,5.46791 0.28846,1.33911 1.07003,3.29566 1.77327,4.43917 0.85049,1.38296 0.9047,1.50962 0.90556,2.11566 7.9e-4,0.79511 -0.30813,1.35828 -1.15499,2.10326 l -0.73194,0.6439 0.93098,0.93309 0.93098,0.93309 0.82657,-0.88451 c 1.35481,-1.44979 1.97897,-1.55578 3.8375,-0.65167 2.95155,1.43585 5.67081,1.88935 8.6409,1.44109 z m -4.4264,-2.09293 c -3.04607,-0.62507 -5.92903,-2.52795 -7.67526,-5.06601 -0.61971,-0.90072 -1.40253,-2.62276 -1.72015,-3.78396 -0.41829,-1.52926 -0.42044,-4.49769 -0.005,-6.03249 1.18251,-4.36197 4.41314,-7.56064 8.85995,-8.77229 1.31817,-0.35917 4.20826,-0.3935 5.51787,-0.0656 4.54868,1.13906 7.90397,4.39466 9.1085,8.83784 0.24639,0.90889 0.29311,1.40283 0.28737,3.03816 -0.008,2.25968 -0.23401,3.31914 -1.09063,5.11112 -0.65069,1.36118 -1.12322,2.04591 -2.19836,3.18561 -1.75531,1.86072 -4.16897,3.1579 -6.71499,3.60886 -1.04041,0.18428 -3.32972,0.15217 -4.36994,-0.0613 z m 2.99118,-2.16214 c 0.70416,-0.70417 1.53143,-2.61975 1.89026,-4.37699 l 0.0864,-0.42311 h -2.62001 -2.62002 l 0.0886,0.48821 c 0.15109,0.83228 0.79335,2.67094 1.16052,3.32232 0.43325,0.76864 1.04786,1.397 1.3664,1.397 0.1322,0 0.42371,-0.18335 0.6478,-0.40743 z m -4.24833,-1.02479 c -0.18523,-0.45856 -0.49984,-1.48096 -0.69916,-2.27198 l -0.36237,-1.43824 -2.11024,-0.0358 -2.11024,-0.0358 0.26968,0.42593 c 0.99819,1.57653 2.39232,2.81744 4.16462,3.70692 0.61057,0.30644 1.12685,0.54042 1.1473,0.51997 0.0205,-0.0204 -0.11438,-0.41236 -0.29959,-0.87092 z m 8.74298,-7.9e-4 c 0.75312,-0.43194 1.76002,-1.26969 2.42397,-2.01673 0.50899,-0.57267 1.15621,-1.50054 1.15621,-1.65757 0,-0.0549 -0.90991,-0.1 -2.02202,-0.1 -1.50581,0 -2.03396,0.0415 -2.06887,0.16274 -0.0258,0.0895 -0.17642,0.71929 -0.33474,1.39952 -0.24288,1.04354 -0.44506,1.64139 -1.00213,2.96339 -0.0823,0.19544 0.87706,-0.19474 1.84758,-0.75138 z m -10.1321,-8.72428 0.002,-2.99718 -2.356,0.0354 -2.35599,0.0354 -0.17483,0.65094 c -0.23566,0.87742 -0.25686,3.31147 -0.0383,4.39385 l 0.17748,0.87877 h 2.37116 2.37118 l 0.002,-2.99719 z m 7.90496,2.79126 c 0.10247,-0.26701 0.0998,-5.10613 -0.003,-5.48981 -0.0784,-0.29239 -0.0836,-0.29292 -2.91227,-0.29292 -2.82868,0 -2.83392,4.9e-4 -2.91228,0.29292 -0.10282,0.38368 -0.10549,5.2228 -0.003,5.48981 0.0687,0.17906 0.44908,0.20593 2.9153,0.20593 2.46622,0 2.8466,-0.0269 2.91531,-0.20593 z m 6.95389,-0.5752 c 0.22473,-0.91412 0.22318,-3.49368 -0.002,-4.4264 l -0.17338,-0.71603 -2.35308,-0.0354 -2.35306,-0.0354 v 3.00004 3.00006 l 2.35306,-0.0354 2.35308,-0.0354 0.17604,-0.71604 z m -14.21426,-8.43179 c 0.15213,-0.69877 0.45256,-1.70914 0.6676,-2.24528 0.21504,-0.53613 0.34869,-0.99126 0.29699,-1.01141 -0.35591,-0.1387 -2.45027,1.11882 -3.49331,2.09749 -0.71088,0.66703 -1.84882,2.09175 -1.84882,2.31476 0,0.0637 0.92271,0.11565 2.05046,0.11539 l 2.05047,-4.9e-4 0.27661,-1.27048 z m 6.94883,1.19548 c 0,-0.39422 -0.64128,-2.41661 -1.0286,-3.24385 -0.44599,-0.95256 -1.22632,-1.88773 -1.57517,-1.88773 -0.34883,0 -1.12916,0.93517 -1.57515,1.88773 -0.38731,0.82724 -1.02861,2.84963 -1.02861,3.24385 0,0.0417 1.1717,0.076 2.60376,0.076 1.43208,0 2.60377,-0.0342 2.60377,-0.076 z m 6.11886,-0.0399 c 0,-0.22301 -1.13794,-1.64774 -1.84883,-2.31475 -0.39454,-0.3702 -1.03338,-0.87504 -1.41964,-1.1219 -0.72685,-0.4645 -2.04249,-1.07753 -2.1231,-0.98926 -0.0252,0.0277 0.13033,0.48894 0.34574,1.02508 0.21542,0.53613 0.51615,1.5465 0.66828,2.24527 l 0.27662,1.27047 2.05046,4.9e-4 c 1.12775,2.6e-4 2.05047,-0.0516 2.05047,-0.11538 z m 22.65275,-0.92564 v -17.18485 h -1.0415 -1.04151 v 3.45591 3.4559 l -0.31955,20.38224 c -0.009,0.57589 -1.30503,1.33503 -1.31373,0.75913 l -0.31955,-21.14137 v -6.51538 -6.515327 h -10.86431 c -7.54823,0 -11.07488,0.0447 -11.5542,0.14638 -2.12421,0.45071 -3.58805,2.04925 -3.89278,4.25099 -0.0667,0.48139 -0.10555,2.662077 -0.0865,4.845987 l 0.0346,3.97074 0.93924,0.0937 c 2.2899,0.22841 4.88901,1.16316 6.84871,2.46307 l 0.75779,0.50265 h 7.54763 7.54763 l 0.31956,0.31956 c 0.40726,0.40726 0.40726,0.90645 0,1.31372 l -0.31956,0.31955 h -6.38514 c -3.51183,0 -6.38514,0.0495 -6.38514,0.11001 0,0.0605 0.12077,0.21931 0.26838,0.3529 0.43397,0.39273 1.48872,1.87624 2.00809,2.82434 l 0.48138,0.87878 h 3.03802 3.03804 l 0.26982,0.34302 c 0.30781,0.39132 0.32853,0.55737 0.12528,1.00347 -0.24459,0.53681 -0.61839,0.60633 -3.26041,0.60633 -2.31166,0 -2.47505,0.0156 -2.38888,0.22783 0.0955,0.23524 0.53656,2.45715 0.659,3.3198 l 0.0693,0.4882 h 5.59219 5.5922 v -5.7342 -5.7342 l 0.31955,-0.31955 c 0.43486,-0.43485 1.01072,-0.42495 1.36345,0.0235 0.26773,0.34038 0.26982,0.42163 0.26982,10.49734 0,9.885 -0.007,10.16534 -0.25718,10.57043 -0.49756,0.80508 -0.27022,0.78279 -8.39749,0.82301 -6.15223,0.0304 -7.43508,0.0675 -7.51867,0.2168 -0.0554,0.0991 -0.39865,0.53657 -0.76269,0.97225 l -0.66192,0.79216 h 9.84048 9.84048 z m -26.21276,-11.43427 c -0.30921,-0.34167 -0.27762,-1.09738 0.0586,-1.40164 0.26425,-0.23915 0.61578,-0.248 9.84048,-0.248 h 9.56644 l 0.3142,0.36528 c 0.38492,0.44749 0.39566,0.73282 0.0444,1.17942 l -0.26983,0.34302 h -9.6694 c -9.20221,0 -9.6798,-0.0115 -9.88486,-0.23808 z m 0.12757,-6.0204 c -0.42982,-0.3381 -0.47031,-1.034957 -0.0827,-1.422617 0.25565,-0.25566 0.43396,-0.26038 9.83513,-0.26038 h 9.57476 l 0.31955,0.31956 c 0.17575,0.17575 0.31955,0.47134 0.31955,0.65685 0,0.18552 -0.1438,0.481107 -0.31955,0.656857 l -0.31955,0.31955 h -9.49211 c -9.40577,0 -9.49522,-0.002 -9.83513,-0.26982 z m -19.87126,30.4897 c 0,-0.0627 -0.1404,-0.43143 -0.31198,-0.81942 -0.55642,-1.25817 -0.88309,-2.55333 -1.20116,-4.76233 l -0.061,-0.42311 h -5.5922 -5.59219 v 3.05942 3.05943 h 6.37922 c 3.56164,0 6.37923,-0.0504 6.37923,-0.11399 z m 41.92061,-2.94544 v -3.05942 h -5.58775 -5.58775 l -0.067,0.35802 c -0.0369,0.19691 -0.10349,0.65094 -0.14802,1.00896 -0.12822,1.0309 -0.67053,2.96281 -1.09369,3.89607 l -0.38803,0.8558 h 6.43615 6.43615 z m -52.32623,-21.62886 c -0.35128,-0.44659 -0.34055,-0.73194 0.0444,-1.17943 l 0.3142,-0.36528 h 9.56644 c 9.2247,0 9.57623,0.009 9.84048,0.24802 0.35296,0.31941 0.37315,1.11911 0.036,1.42425 -0.21702,0.19641 -1.09112,0.21547 -9.88486,0.21547 h -9.64676 z m 0.0497,-5.96519 c -0.17576,-0.17576 -0.31955,-0.471337 -0.31955,-0.656847 0,-0.18553 0.14379,-0.48111 0.31955,-0.65687 l 0.31955,-0.31955 h 9.57475 c 9.40118,0 9.57948,0.005 9.83514,0.26037 0.38766,0.38766 0.34717,1.084527 -0.0827,1.422627 -0.3399,0.26737 -0.42935,0.26982 -9.83513,0.26982 h -9.4921 z"
             id="path461"
             sodipodi:nodetypes="sssssssscscscssscccccscsssscscscccscccccscssscccsssscssscccsscccssscsssccssssscscscssssscsssscssscsscscccsscsccccccccccccssssscscscccsscccsscscscsssccsscccssssssscccsscsssssssscssccccsscccccccsssscccccccccccccssssssccssssssssssscsscsssccccccsscccsccscsscccsscsssscccssssscccccssscscsccccssscsscssscsscssscscccsccccccscccccccsscccccscscssccssscscsscs" /><text
             xml:space="preserve"
             style="font-size:17.6389px;font-family:'Latin Modern Roman';-inkscape-font-specification:'Latin Modern Roman, Normal';text-align:center;text-anchor:middle;fill:#afafaf;fill-rule:evenodd;stroke:#6464ff;stroke-width:0.25;stroke-linecap:round;stroke-linejoin:round;fill-opacity:1;stroke-opacity:1"
             x="93.409721"
             y="132.50432"
             id="text545"><tspan
               sodipodi:role="line"
               id="tspan543"
               style="font-style:normal;font-variant:normal;font-weight:bold;font-stretch:normal;font-size:17.6389px;font-family:monospace;-inkscape-font-specification:'monospace Bold';stroke-width:0.25;fill:#afafaf;fill-opacity:1;stroke:#6464ff;stroke-opacity:1"
               x="93.409721"
               y="132.50432">biblio-bridge</tspan></text><path
             style="fill:#00c8ff;fill-opacity:1;fill-rule:evenodd;stroke:#00c8ff;stroke-width:0.51779529;stroke-linecap:round;stroke-linejoin:round;stroke-opacity:1;stroke-dasharray:none"
             d="m 16.395127,167.60996 c -5.672644,-2.67391 -8.539791,-6.91958 -8.9023501,-13.18257 -0.3902915,-6.74206 2.1565792,-11.26003 8.0825941,-14.33798 1.978052,-1.02739 3.314764,-1.27734 6.831302,-1.27734 3.777778,0 4.717045,0.20282 6.910329,1.49217 6.388722,3.75569 9.496819,11.29106 7.338032,17.79056 -1.110918,3.34466 -4.550941,7.39655 -7.620241,8.97563 -3.223773,1.65855 -9.680961,1.93418 -12.639666,0.53953 z"
             id="path1245"
             transform="matrix(0.26458333,0,0,0.26458333,12.725204,30.468825)" /><path
             style="fill:#00c8ff;fill-opacity:1;fill-rule:evenodd;stroke:#00c8ff;stroke-width:0.51779529;stroke-linecap:round;stroke-linejoin:round;stroke-opacity:1;stroke-dasharray:none"
             d="m 45.334277,258.59155 c -6.638488,-2.55779 -10.564549,-8.77428 -9.933896,-15.72923 1.185467,-13.07355 17.010257,-18.23318 25.943484,-8.45881 3.001983,3.28465 3.96339,5.83726 3.96339,10.52311 0,7.92374 -6.82111,14.43343 -15.028866,14.34272 -1.803464,-0.0199 -4.028314,-0.32494 -4.944112,-0.67779 z"
             id="path1316"
             transform="matrix(0.26458333,0,0,0.26458333,12.725204,30.468825)" /><path
             style="fill:#00c8ff;fill-opacity:1;fill-rule:evenodd;stroke:#00c8ff;stroke-width:0.51779529;stroke-linecap:round;stroke-linejoin:round;stroke-opacity:1;stroke-dasharray:none"
             d="m 86.858444,179.58653 c -9.558431,-4.34142 -12.361234,-16.13847 -5.646612,-23.76668 3.455556,-3.92572 5.851906,-4.97026 11.420635,-4.97813 4.089707,-0.006 4.950944,0.17313 7.200947,1.49579 5.000846,2.93975 7.554666,7.60134 7.554666,13.78983 0,8.01344 -6.7263,14.49184 -15.028865,14.47497 -2.008688,-0.004 -4.13976,-0.39761 -5.500771,-1.01578 z"
             id="path1318"
             transform="matrix(0.26458333,0,0,0.26458333,12.725204,30.468825)" /><path
             style="fill:#00c8ff;fill-opacity:1;fill-rule:evenodd;stroke:#00c8ff;stroke-width:0.51779529;stroke-linecap:round;stroke-linejoin:round;stroke-opacity:1;stroke-dasharray:none"
             d="m 115.85393,245.19219 c -5.70422,-2.69859 -8.57763,-7.08273 -8.65216,-13.20114 -0.0784,-6.43962 3.78184,-12.2321 9.64376,-14.47079 3.28752,-1.25552 8.99779,-0.93614 12.12947,0.6784 8.59667,4.43203 10.77679,15.96073 4.43657,23.46112 -0.81102,0.95944 -2.97958,2.49648 -4.81901,3.41565 -4.49091,2.24414 -8.17052,2.27786 -12.73863,0.11676 z"
             id="path1320"
             transform="matrix(0.26458333,0,0,0.26458333,12.725204,30.468825)" /><path
             style="fill:#00c8ff;fill-opacity:1;fill-rule:evenodd;stroke:#00c8ff;stroke-width:0.51779529;stroke-linecap:round;stroke-linejoin:round;stroke-opacity:1;stroke-dasharray:none"
             d="m 109.02406,311.81655 c -9.01285,-2.74159 -13.599457,-12.86947 -9.56376,-21.11813 1.67418,-3.4219 5.59234,-7.09106 8.40725,-7.87296 3.20015,-0.88891 8.81514,-0.65529 11.27037,0.46891 3.17856,1.45541 7.0294,5.84163 8.18615,9.32427 2.58435,7.78074 -2.12103,16.46897 -10.22222,18.87476 -2.99048,0.88808 -5.84518,1.00228 -8.07779,0.32315 z"
             id="path1322"
             transform="matrix(0.26458333,0,0,0.26458333,12.725204,30.468825)" /><path
             style="fill:#00c8ff;fill-opacity:1;fill-rule:evenodd;stroke:#00c8ff;stroke-width:0.51779529;stroke-linecap:round;stroke-linejoin:round;stroke-opacity:1;stroke-dasharray:none"
             d="m 106.44513,110.85615 c -3.34501,-1.18445 -7.416835,-5.07368 -8.885034,-8.4866 -2.448681,-5.692113 -0.439114,-13.584843 4.443424,-17.451882 3.08169,-2.440744 6.46421,-3.402209 10.86222,-3.087533 8.45649,0.605059 14.12735,7.26566 13.54361,15.907379 -0.27039,4.002886 -1.43387,6.627086 -4.16528,9.394716 -4.18799,4.24351 -10.27779,5.67892 -15.79894,3.72392 z"
             id="path1324"
             transform="matrix(0.26458333,0,0,0.26458333,12.725204,30.468825)" /><path
             style="fill:#00c8ff;fill-opacity:1;fill-rule:evenodd;stroke:#00c8ff;stroke-width:0.51779529;stroke-linecap:round;stroke-linejoin:round;stroke-opacity:1;stroke-dasharray:none"
             d="M 106.56832,36.325699 C 100.69081,34.06099 97.068801,29.420996 96.597763,23.552857 95.87641,14.566313 102.42247,7.2258085 111.21361,7.1632013 c 4.59147,-0.032698 7.26086,0.9254313 10.24704,3.6779907 3.32098,3.061173 4.62889,5.843776 4.93273,10.494452 0.20622,3.156447 0.0298,4.362594 -0.9823,6.715267 -1.52624,3.547829 -5.06298,6.769529 -9.08242,8.273396 -3.65751,1.368449 -6.21152,1.368814 -9.76034,0.0014 z"
             id="path1326"
             transform="matrix(0.26458333,0,0,0.26458333,12.725204,30.468825)" /><path
             style="fill:#00c8ff;fill-opacity:1;fill-rule:evenodd;stroke:#00c8ff;stroke-width:0.51779529;stroke-linecap:round;stroke-linejoin:round;stroke-opacity:1;stroke-dasharray:none"
             d="m 46.452859,88.320096 c -6.999791,-1.822451 -11.74984,-7.922216 -11.74984,-15.088529 0,-8.532782 6.277986,-14.675973 15.028866,-14.706181 4.745186,-0.01638 8.08503,1.456229 11.118431,4.902354 6.842567,7.773567 4.02215,19.940023 -5.548544,23.934803 -2.584821,1.078897 -6.680557,1.522102 -8.848913,0.957553 z"
             id="path1328"
             transform="matrix(0.26458333,0,0,0.26458333,12.725204,30.468825)" /><path
             id="path1399"
             style="fill:#ffc8ff;fill-opacity:1;fill-rule:evenodd;stroke:#ffc8ff;stroke-width:0.282977;stroke-linecap:round;stroke-linejoin:round;stroke-dasharray:none;stroke-opacity:1"
             d="M 185.82813 7.5781251 C 180.69136 7.5130091 175.95981 7.8479658 173.78906 8.6093751 C 170.04678 9.9220213 165.86648 13.215571 164.22461 16.144531 L 162.85742 18.582031 L 162.6836 37.628907 L 162.50781 56.675782 L 164.59571 55.001954 C 168.61846 51.775629 174.99931 50.482957 181.40039 51.597657 C 183.41847 51.949091 189.41663 53.699796 194.73047 55.488282 C 203.23172 58.349558 204.90448 58.740241 208.65039 58.744141 C 216.12819 58.751971 219.10322 56.326369 219.01172 50.294923 C 218.86963 40.924709 211.97326 35.7618 195.98828 33.056641 C 192.56844 32.477898 189.18771 31.623487 188.47461 31.15625 C 187.00547 30.193633 186.78875 28.336792 187.95899 26.746094 C 188.64536 25.813125 189.35358 25.698443 193.83399 25.789063 C 208.0183 26.075968 221.46865 33.171856 224.89649 42.175782 C 228.37785 51.320287 225.80265 60.680144 218.82813 64.238282 C 215.92101 65.72138 211.14949 66.332588 206.5293 65.814454 C 201.59947 65.2616 199.95272 64.835589 189.36328 61.371095 C 179.29256 58.07631 174.87911 57.688159 170.91211 59.751954 C 165.75863 62.433013 163.17163 68.720206 162.72461 79.652345 L 162.43946 86.621095 L 164.84961 86.621095 C 172.46716 86.621095 183.81916 89.14205 191.01563 92.431642 L 195.43555 94.451173 L 198.54688 91.431642 C 203.66166 86.468738 209.39565 83.107839 215.21094 81.664064 C 217.66036 81.055942 217.92104 81.096499 219.17383 82.273439 C 220.75166 83.755731 220.93101 86.088528 219.5586 87.285157 C 219.03259 87.7438 217.12573 88.662319 215.32227 89.326173 C 210.86385 90.967318 206.28635 93.828611 203.90821 96.460939 C 202.82225 97.662969 201.9336 98.831111 201.9336 99.056642 C 201.9336 99.282168 202.81537 100.69534 203.89258 102.19727 C 207.0597 106.6131 209.16731 111.36407 210.34571 116.73633 L 210.65821 118.16016 L 215.17578 116.76563 C 219.23072 115.51507 220.63413 115.3689 228.84961 115.3418 L 238.00196 115.3125 L 238.00196 113.37695 C 238.00196 110.55364 239.45857 105.41812 241.16211 102.23633 C 243.4769 97.91287 249.64167 92.145632 254.83203 89.445314 C 260.98752 86.242873 266.23582 85.0014 275.3125 84.59961 C 282.72773 84.271364 282.84195 84.24616 283.17383 82.923829 C 283.80802 80.397015 282.92377 73.818798 281.39258 69.679688 C 280.16462 66.360258 279.24655 64.948728 276.56446 62.253907 C 272.06738 57.735518 269.4446 56.840391 260.68164 56.837891 C 254.50658 56.836114 253.97471 56.923789 251.5625 58.341798 C 248.13854 60.354557 245.56142 63.623223 242.96094 69.251954 C 240.5476 74.475611 239.13035 75.462496 236.50782 73.744142 C 235.24254 72.915106 235.1535 72.599855 235.42969 69.923829 C 235.86969 65.660635 238.72779 60.123925 242.36133 56.490235 C 245.94988 52.90153 249.68717 50.859255 255.09766 49.529297 C 257.2294 49.005293 259.05902 48.317071 259.16407 48.001954 C 259.50351 46.983608 251.98037 37.854402 246.4043 32.517579 C 243.42081 29.662096 238.70864 25.773964 235.9336 23.876953 C 226.44938 17.393601 212.97264 11.747093 200.29297 8.9453126 C 196.50533 8.108372 190.96489 7.6432411 185.82813 7.5781251 z M 277.04102 91.658204 C 270.55163 91.431417 263.25104 93.132468 257.13086 96.603517 C 252.45856 99.253404 247.66982 104.33554 246.45313 107.93555 C 244.49595 113.72653 245.5779 119.53048 249.4336 123.92188 C 251.18532 125.91696 257.02945 129.24805 258.77735 129.24805 C 260.1463 129.24805 262.59571 131.74479 262.59571 133.14063 C 262.59571 135.07139 261.04359 136.35352 258.70508 136.35352 C 253.9636 136.35352 245.24639 131.57422 242.26172 127.33985 C 239.85163 123.92064 236.9433 122.61799 230.96875 122.27735 C 228.35354 122.12823 224.46338 122.30129 222.32422 122.66211 C 218.58225 123.29328 212.26874 125.81311 211.56055 126.95899 C 211.37269 127.26294 210.72216 129.93153 210.11524 132.88867 C 208.43314 141.08446 207.37806 144.41237 205.98633 145.91406 C 204.44221 147.58019 202.85702 147.65975 201.34571 146.14844 C 200.0568 144.85952 200.13943 143.63928 202.02735 136.08008 C 202.93313 132.45141 203.08752 130.31212 202.93555 123.4961 C 202.75814 115.53885 202.6981 115.17446 201.00782 111.7461 C 197.64549 104.92637 190.34608 99.384436 180.92383 96.498048 C 176.55267 95.158999 168.29775 93.731717 164.90821 93.728517 L 162.58594 93.724611 L 162.58594 187.66602 L 162.58594 281.60743 L 166 282.97266 C 172.5336 285.58585 185.51385 287.73438 194.76758 287.73438 C 203.91076 287.73438 213.39762 285.43854 221.20117 281.33789 C 234.9864 274.09397 238.92304 260.503 229.91016 251.27735 C 226.79066 248.08419 223.69815 246.63527 219.33789 246.32227 C 210.93482 245.71905 204.4697 250.5104 202.28907 258.95703 C 201.83564 260.71338 201.04015 262.62025 200.52149 263.19336 C 199.27874 264.56659 197.29397 264.51468 195.85156 263.07227 C 194.87075 262.09145 194.73651 261.47204 194.98438 259.10938 C 195.4948 254.24415 197.36205 250.27806 200.94922 246.44336 C 204.01784 243.16301 206.57092 241.54945 212.41797 239.19532 C 213.80869 238.63539 213.85395 238.49742 213.32032 236.52735 C 213.01079 235.38466 212.15351 233.23413 211.41407 231.74805 C 206.85522 222.5861 200.71283 219.07403 188.27149 218.51563 C 180.59544 218.17111 178.6565 217.65596 178.19922 215.83399 C 177.28951 212.20942 180.6433 210.94204 189.91016 211.40821 C 200.20018 211.92586 205.6702 214.01494 211.75586 219.75586 C 215.84405 223.61244 218.39312 227.85369 219.9961 233.45899 C 221.19511 237.65171 222.09643 238.81529 224.81641 239.69532 C 232.79341 242.27622 238.56647 248.01001 241.30078 256.06641 C 242.2732 258.93163 242.44372 260.38482 242.21289 263.84766 C 241.78632 270.24684 239.29247 275.11533 233.48242 280.89453 C 225.1559 289.17687 215.31897 293.34757 200.56641 294.85157 C 191.22218 295.8042 181.49518 294.77489 169.30664 291.54297 C 165.94025 290.65033 163.02353 289.91993 162.82422 289.91993 C 162.62496 289.91993 162.55711 291.61014 162.67383 293.67578 C 162.8419 296.65018 163.1938 297.87602 164.36524 299.56641 C 166.88107 303.19677 172.88852 306.10743 180.52735 307.39649 C 184.83721 308.12377 194.99639 307.99679 201.57227 307.13477 C 226.31719 303.89099 243.49136 293.00191 252.7168 274.70508 C 253.67805 272.79864 254.94897 269.67075 255.54102 267.75391 C 256.73142 263.89985 256.46653 264.06545 263.72461 262.61914 C 270.35633 261.29765 275.73025 257.5348 278.35938 252.37305 C 281.21731 246.76209 281.9853 239.56525 280.15625 235.53907 C 278.19134 231.21383 274.88546 229.25643 266.1543 227.25391 C 262.32061 226.37464 261.72597 226.07542 261.28125 224.79297 C 260.90006 223.69371 261.00262 222.98401 261.69727 221.92383 C 262.53891 220.63933 262.94451 220.51544 266.29688 220.52344 C 274.12137 220.54161 279.10706 222.70108 284.125 228.2461 C 287.17438 231.61576 287.18204 231.61919 288.34375 230.57617 C 291.89608 227.38681 297.93052 217.88431 301.05274 210.56446 C 305.28963 200.63136 307.34537 185.09752 306.31836 170.76367 C 305.51271 159.51941 303.58348 152.23241 298.43946 140.99805 C 297.06316 137.99228 295.93755 134.94302 295.93555 134.22266 C 295.9341 133.50231 296.72684 130.55258 297.69727 127.66602 C 299.32168 122.83415 299.46186 121.85332 299.47266 115.3125 C 299.48379 108.56858 299.40381 108.04433 297.90039 104.98242 C 296.04243 101.19842 291.24421 96.255982 287.41602 94.183595 C 284.53626 92.624641 280.93466 91.794277 277.04102 91.658204 z M 183.40625 145.09766 C 185.56349 145.09766 186.38781 146.61861 187.37696 152.42578 C 189.2764 163.57708 195.51155 170.27315 207.41602 173.94531 C 212.66975 175.56593 220.93018 176.45828 227.01563 176.0625 C 236.13082 175.46966 241.90625 173.25307 246.57813 168.55664 C 250.05903 165.05745 251.82081 161.85113 253.32422 156.28321 C 253.97106 153.88765 254.85192 151.37552 255.28125 150.69922 C 256.7001 148.46418 260.08145 149.36837 261.09766 152.25586 C 261.26706 152.73718 261.06272 155.07506 260.64258 157.44922 C 259.92167 161.52289 259.93603 161.81232 260.90235 162.58594 C 261.46552 163.0368 263.12241 164.34253 264.58399 165.48828 C 266.04558 166.63403 268.34662 169.01646 269.69922 170.78321 C 271.05181 172.54994 272.31317 174.0112 272.50196 174.0293 C 272.96872 174.07413 275.00928 168.40602 275.73633 165.04492 C 276.06139 163.54204 276.25055 158.86823 276.15625 154.66016 L 275.98438 147.00977 L 278.59571 146.8418 C 281.1498 146.67826 281.22739 146.72124 282.12696 148.75586 C 282.85101 150.39348 283.03993 152.46235 283.01953 158.48633 C 282.98804 167.79987 282.13676 171.70495 278.66016 178.48633 C 276.59263 182.51921 276.01412 184.32192 275.41993 188.57617 C 274.61386 194.34742 273.95922 196.67971 272.13282 200.29297 C 269.27083 205.95499 264.02573 210.20069 256.96094 212.57227 C 252.37275 214.11247 246.23373 214.69697 242.2461 213.97266 C 235.64072 212.77285 229.09458 209.7216 227.81446 207.2461 C 227.0894 205.84393 227.09445 205.5339 227.86914 204.35157 C 229.07609 202.50954 231.47075 202.62366 236.73242 204.77539 C 240.62672 206.36794 241.54553 206.52598 247.01953 206.55078 C 252.4298 206.57527 253.34386 206.43145 256.15625 205.11328 C 260.29162 203.17505 264.41479 199.23608 266.27735 195.44336 C 267.60409 192.74176 267.78711 191.74081 267.78711 187.17774 C 267.78711 182.86625 267.57363 181.55347 266.53125 179.4375 C 265.02756 176.38509 261.51652 172.2898 258.58203 170.16406 L 256.44922 168.61719 L 254.94922 170.68946 C 251.65445 175.23775 245.16766 179.38548 237.72852 181.70313 C 230.64217 183.91086 215.94492 183.76231 206.57813 181.38672 C 204.77466 180.92932 200.96291 179.42785 198.10742 178.05078 C 193.98652 176.06344 192.11498 174.74572 189.03125 171.66211 C 183.12977 165.76085 180.48303 159.52931 180.39453 151.33008 C 180.34066 146.33942 180.94074 145.09766 183.40625 145.09766 z "
             transform="matrix(0.26458333,0,0,0.26458333,12.725204,30.468825)" /><path
             style="fill:#00c8ff;fill-opacity:1;fill-rule:evenodd;stroke:#00c8ff;stroke-width:0.282977;stroke-linecap:round;stroke-linejoin:round;stroke-dasharray:none;stroke-opacity:1"
             d="m 688.09485,363.77304 c -0.16045,-0.25962 -0.54395,-2.69854 -0.85222,-5.41984 -0.56542,-4.99121 0.006,-14.60561 0.91843,-15.44454 0.23885,-0.21968 4.30762,-0.57164 9.04171,-0.78212 l 8.60744,-0.3827 v 11.25061 11.25062 h -8.71181 c -4.7915,0 -8.8431,-0.21242 -9.00355,-0.47203 z"
             id="path1473"
             transform="matrix(0.26458333,0,0,0.26458333,12.725204,30.468825)" /><path
             style="fill:#00c8ff;fill-opacity:1;fill-rule:evenodd;stroke:#00c8ff;stroke-width:0.282977;stroke-linecap:round;stroke-linejoin:round;stroke-dasharray:none;stroke-opacity:1"
             d="m 692.8194,333.72983 c -1.01701,-0.64548 4.79373,-7.37134 9.28376,-10.74583 4.15641,-3.12376 8.42998,-5.56957 8.90381,-5.09574 0.1773,0.17731 -0.4295,2.87194 -1.34844,5.98808 -0.91895,3.11614 -1.9243,6.7109 -2.23413,7.98835 l -0.56331,2.32265 -6.67361,-0.008 c -3.67049,-0.005 -6.98612,-0.20672 -7.36808,-0.44914 z"
             id="path1475"
             transform="matrix(0.26458333,0,0,0.26458333,12.725204,30.468825)" /><path
             style="fill:#00c8ff;fill-opacity:1;fill-rule:evenodd;stroke:#00c8ff;stroke-width:0.282977;stroke-linecap:round;stroke-linejoin:round;stroke-dasharray:none;stroke-opacity:1"
             d="m 715.00419,363.89317 c -0.68399,-0.19357 -1.01479,-1.17859 -1.30459,-3.88467 -0.43296,-4.04296 -0.0132,-16.93768 0.57038,-17.52183 0.53909,-0.53959 20.32365,-0.46397 20.86876,0.0798 0.59408,0.59258 0.59591,20.35102 0.002,20.94861 -0.47939,0.4823 -18.56815,0.82197 -20.13649,0.37812 z"
             id="path1477"
             transform="matrix(0.26458333,0,0,0.26458333,12.725204,30.468825)" /><path
             style="fill:#00c8ff;fill-opacity:1;fill-rule:evenodd;stroke:#00c8ff;stroke-width:0.282977;stroke-linecap:round;stroke-linejoin:round;stroke-dasharray:none;stroke-opacity:1"
             d="m 715.40567,333.69201 c -0.37498,-0.60672 2.50284,-9.55448 4.04549,-12.57833 1.38251,-2.70994 4.26227,-6.05399 5.21345,-6.05399 1.00756,0 3.87507,3.41913 5.40234,6.4416 1.6569,3.27898 4.26937,11.52284 3.86099,12.18362 -0.4028,0.65174 -18.11967,0.65854 -18.52227,0.007 z"
             id="path1479"
             transform="matrix(0.26458333,0,0,0.26458333,12.725204,30.468825)" /><path
             style="fill:#00c8ff;fill-opacity:1;fill-rule:evenodd;stroke:#00c8ff;stroke-width:0.282977;stroke-linecap:round;stroke-linejoin:round;stroke-dasharray:none;stroke-opacity:1"
             d="m 723.27611,390.32326 c -2.64839,-2.09404 -6.49877,-10.23008 -7.88008,-16.65099 l -0.38209,-1.77614 h 9.60724 c 5.28399,0 9.60725,0.18939 9.60725,0.42086 0,1.55817 -2.53759,9.04862 -4.15049,12.25142 -2.87924,5.71741 -4.79704,7.34001 -6.80183,5.75485 z"
             id="path1481"
             transform="matrix(0.26458333,0,0,0.26458333,12.725204,30.468825)" /><path
             style="fill:#00c8ff;fill-opacity:1;fill-rule:evenodd;stroke:#00c8ff;stroke-width:0.282977;stroke-linecap:round;stroke-linejoin:round;stroke-dasharray:none;stroke-opacity:1"
             d="m 707.5675,386.83041 c -4.68111,-2.41202 -10.00133,-6.82877 -13.0821,-10.86053 l -2.90406,-3.8005 1.51277,-0.18987 c 0.83202,-0.10443 4.27645,-0.0189 7.65428,0.19012 l 6.14151,0.37999 0.56775,2.26915 c 0.31226,1.24803 1.29897,4.63881 2.19268,7.53507 0.89371,2.89626 1.62492,5.41701 1.62492,5.60167 0,0.60813 -0.8368,0.35421 -3.70775,-1.1251 z"
             id="path1483"
             transform="matrix(0.26458333,0,0,0.26458333,12.725204,30.468825)" /><path
             style="fill:#00c8ff;fill-opacity:1;fill-rule:evenodd;stroke:#00c8ff;stroke-width:0.282977;stroke-linecap:round;stroke-linejoin:round;stroke-dasharray:none;stroke-opacity:1"
             d="m 738.05424,387.88138 c 1.5e-4,-0.22544 0.50372,-1.73447 1.11904,-3.3534 0.61532,-1.61894 1.58781,-4.90737 2.1611,-7.30763 0.57329,-2.40026 1.19625,-4.51865 1.38436,-4.70754 0.55028,-0.55255 11.88157,-0.74084 13.26959,-0.2205 1.25145,0.46914 1.23524,0.51417 -1.40976,3.9179 -3.00557,3.86773 -8.76991,8.72373 -12.74921,10.74019 -2.72994,1.38336 -3.7756,1.64123 -3.77512,0.93098 z"
             id="path1485"
             transform="matrix(0.26458333,0,0,0.26458333,12.725204,30.468825)" /><path
             style="fill:#00c8ff;fill-opacity:1;fill-rule:evenodd;stroke:#00c8ff;stroke-width:0.282977;stroke-linecap:round;stroke-linejoin:round;stroke-dasharray:none;stroke-opacity:1"
             d="m 744.06551,353.08412 v -11.32689 l 8.33419,0.37816 c 4.5838,0.20799 8.58011,0.60744 8.88069,0.88767 0.78507,0.73191 0.72427,19.35008 -0.0658,20.14012 -0.3668,0.3668 -3.92736,0.73969 -8.8807,0.93006 l -8.26841,0.31777 z"
             id="path1487"
             transform="matrix(0.26458333,0,0,0.26458333,12.725204,30.468825)" /><path
             style="fill:#00c8ff;fill-opacity:1;fill-rule:evenodd;stroke:#00c8ff;stroke-width:0.282977;stroke-linecap:round;stroke-linejoin:round;stroke-dasharray:none;stroke-opacity:1"
             d="m 742.10835,332.68445 c -0.96051,-4.2649 -1.50158,-6.24348 -2.77429,-10.14499 -0.76612,-2.34854 -1.26267,-4.40034 -1.10344,-4.55957 0.15922,-0.15923 2.03592,0.62822 4.17044,1.74987 6.33694,3.32997 16.12961,13.27645 13.9098,14.12827 -0.47199,0.18112 -3.78448,0.32931 -7.3611,0.32931 h -6.50294 z"
             id="path1489"
             transform="matrix(0.26458333,0,0,0.26458333,12.725204,30.468825)" /><path
             style="fill:#ffccaa;fill-opacity:1;fill-rule:evenodd;stroke:#ffccaa;stroke-width:0.282977;stroke-linecap:round;stroke-linejoin:round;stroke-dasharray:none;stroke-opacity:1"
             d="m 606.34644,330.63506 v -64.76075 h 3.55228 3.55228 l 10e-4,23.0898 c 0.003,43.79276 0.62864,93.54146 1.2004,95.41787 1.04325,3.42374 1.34685,3.46091 31.71928,3.88372 14.95056,0.20813 27.36987,0.57129 27.59846,0.80705 0.22859,0.23575 -1.05994,1.75444 -2.86341,3.37486 l -3.27902,2.94623 -30.74086,10e-4 -30.74088,8.8e-4 z"
             id="path1560"
             transform="matrix(0.26458333,0,0,0.26458333,12.725204,30.468825)" /><path
             style="fill:#ffccaa;fill-opacity:1;fill-rule:evenodd;stroke:#ffccaa;stroke-width:0.282977;stroke-linecap:round;stroke-linejoin:round;stroke-dasharray:none;stroke-opacity:1"
             d="m 769.75121,395.08398 c 0,-0.17151 1.04184,-1.58559 2.3152,-3.1424 1.27337,-1.55682 2.40032,-2.95353 2.50434,-3.10382 0.10403,-0.15029 12.64964,-0.4388 27.87916,-0.64114 15.2295,-0.20234 28.42371,-0.58783 29.32044,-0.85665 0.97229,-0.29147 2.07529,-1.24596 2.73252,-2.36463 1.07901,-1.83659 1.10325,-2.79155 1.15712,-45.59621 0.0303,-24.04619 0.0918,-50.42185 0.13663,-58.61258 l 0.0816,-14.89224 h 3.55228 3.55227 v 64.76075 64.76075 h -36.61578 c -20.13868,0 -36.61578,-0.14033 -36.61578,-0.31183 z"
             id="path1562"
             transform="matrix(0.26458333,0,0,0.26458333,12.725204,30.468825)" /><path
             style="fill:#ffccaa;fill-opacity:1;fill-rule:evenodd;stroke:#ffccaa;stroke-width:0.282977;stroke-linecap:round;stroke-linejoin:round;stroke-dasharray:none;stroke-opacity:1"
             d="m 630.58881,451.48956 c -3.76497,-3.76496 -5.11472,-5.48029 -5.11472,-6.50003 0,-1.11668 2.30507,-3.43279 11.88647,-11.94345 6.53755,-5.80697 13.81005,-12.26914 16.1611,-14.36038 l 4.27463,-3.80226 4.41334,4.41334 4.41334,4.41334 -1.13822,1.44702 c -0.62602,0.79585 -6.2818,7.27481 -12.56839,14.39769 -11.42119,12.94049 -15.41962,17.04945 -16.59083,17.04945 -0.3421,0 -2.92363,-2.30162 -5.73672,-5.11472 z"
             id="path1564"
             transform="matrix(0.26458333,0,0,0.26458333,12.725204,30.468825)" /><path
             style="fill:#cccccc;fill-opacity:1;fill-rule:evenodd;stroke:#cccccc;stroke-width:0.343794;stroke-linecap:round;stroke-linejoin:round;stroke-dasharray:none;stroke-opacity:1"
             d="m 668.08092,413.45449 -3.80301,-3.84311 2.5202,-2.46091 2.52021,-2.46091 3.74417,3.81418 3.74417,3.81418 -2.17897,2.48984 c -1.19843,1.36941 -2.30605,2.48984 -2.46137,2.48984 -0.15532,0 -1.99375,-1.7294 -4.0854,-3.84311 z"
             id="path1704"
             transform="matrix(0.26458333,0,0,0.26458333,12.725204,30.468825)" /><path
             style="fill:#cccccc;fill-opacity:1;fill-rule:evenodd;stroke:#cccccc;stroke-width:0.343794;stroke-linecap:round;stroke-linejoin:round;stroke-dasharray:none;stroke-opacity:1"
             d="m 712.3517,404.69888 c -2.59762,-0.68108 -7.58697,-2.45731 -11.08744,-3.94719 -8.96777,-3.81688 -10.21246,-3.67342 -15.90179,1.83269 l -3.16197,3.06014 -3.10259,-3.10259 -3.10258,-3.10258 3.06644,-3.27829 c 4.85318,-5.18843 4.82538,-6.39146 -0.39033,-16.89033 -5.99475,-12.06705 -6.67696,-14.71313 -6.71486,-26.04508 -0.0266,-7.94799 0.19453,-10.01724 1.52538,-14.27509 2.46314,-7.88048 6.98988,-15.98681 11.87198,-21.25993 7.33733,-7.925 14.91277,-12.62445 25.11724,-15.58159 7.68299,-2.22645 20.02419,-2.37218 27.41619,-0.32375 16.12632,4.46883 28.17492,14.6095 34.9479,29.41379 3.62841,7.93093 4.64546,12.94039 4.60679,22.69053 -0.0315,7.93927 -0.20652,9.13729 -2.18253,14.93906 -6.13595,18.01576 -20.3994,31.40552 -38.20637,35.86607 -6.94849,1.74057 -18.07165,1.74243 -24.70146,0.004 z m 20.283,-6.33455 c 8.54759,-0.94715 19.81363,-7.18968 26.54593,-14.70912 4.80165,-5.36308 9.78377,-15.61345 10.75615,-22.13008 1.69411,-11.35345 -0.30578,-22.88471 -5.50827,-31.76038 -3.29977,-5.62956 -11.92276,-13.93241 -17.47576,-16.82694 -8.82707,-4.60115 -12.22282,-5.42722 -22.2426,-5.41081 -10.01615,0.0164 -13.50293,0.86318 -22.24259,5.40176 -7.02193,3.64655 -15.17118,12.06983 -18.79683,19.4289 -3.84319,7.80062 -4.98719,13.60646 -4.5698,23.19185 0.35646,8.1859 1.1806,11.30344 5.17789,19.58676 1.63667,3.39158 3.68323,6.08328 7.5723,9.95937 8.20421,8.17681 16.92144,12.58591 26.88341,13.59735 4.91879,0.49942 6.83629,0.45408 13.90017,-0.32866 z"
             id="path1706"
             transform="matrix(0.26458333,0,0,0.26458333,12.725204,30.468825)" /><path
             style="fill:#ffffff;fill-opacity:1;fill-rule:evenodd;stroke:#cccccc;stroke-width:0.343794;stroke-linecap:round;stroke-linejoin:round;stroke-dasharray:none;stroke-opacity:1"
             d="m 621.79666,368.93551 v -11.39413 h 20.79505 20.79505 l 0.86498,5.32636 c 0.47574,2.9295 1.712,7.7725 2.74725,10.76221 1.03524,2.98971 1.80224,5.51586 1.70444,5.61366 -0.0978,0.0978 -10.69183,0.38217 -23.54229,0.63193 l -23.36448,0.4541 z"
             id="path1777"
             transform="matrix(0.26458333,0,0,0.26458333,12.725204,30.468825)" /><path
             style="fill:#f9f9f9;fill-opacity:1;fill-rule:evenodd;stroke:#cccccc;stroke-width:0.343794;stroke-linecap:round;stroke-linejoin:round;stroke-dasharray:none;stroke-opacity:1"
             d="m 781.18375,377.04144 c 1.60883,-3.75326 3.61881,-11.30907 4.26008,-16.01428 l 0.47507,-3.48578 h 20.85237 20.85237 v 11.28729 11.28728 h -23.87889 -23.87889 z"
             id="path1779"
             transform="matrix(0.26458333,0,0,0.26458333,12.725204,30.468825)" /><path
             style="fill:#f9f9f9;fill-opacity:1;fill-rule:evenodd;stroke:#cccccc;stroke-width:0.343794;stroke-linecap:round;stroke-linejoin:round;stroke-dasharray:none;stroke-opacity:1"
             d="m 622.4604,368.99466 2.2e-4,-10.78932 h 20.22063 20.22064 l 0.42925,2.48984 c 0.64501,3.74131 2.77158,12.10653 3.86683,15.2108 l 0.96807,2.7438 -11.39943,0.40286 c -6.26969,0.22157 -16.55351,0.47676 -22.85294,0.56709 l -11.4535,0.16424 z"
             id="path1850"
             transform="matrix(0.26458333,0,0,0.26458333,12.725204,30.468825)" /><path
             style="fill:#ececec;fill-opacity:1;fill-rule:evenodd;stroke:#cccccc;stroke-width:0.343794;stroke-linecap:round;stroke-linejoin:round;stroke-dasharray:none;stroke-opacity:1"
             d="m 781.14692,378.95403 c 1.8e-4,-0.27389 0.56429,-1.99188 1.25356,-3.81776 1.07058,-2.83595 1.76947,-5.69355 3.7755,-15.43703 l 0.30757,-1.4939 h 20.23807 20.23806 v 10.62333 10.62333 h -22.90655 c -12.5986,0 -22.9064,-0.22409 -22.90621,-0.49797 z"
             id="path1852"
             transform="matrix(0.26458333,0,0,0.26458333,12.725204,30.468825)" /><path
             style="fill:#ececec;fill-opacity:1;fill-rule:evenodd;stroke:#ececec;stroke-width:0.343794;stroke-linecap:round;stroke-linejoin:round;stroke-dasharray:none;stroke-opacity:1"
             d="m 623.12458,369.17885 v -10.32931 l 19.68208,0.17587 19.68209,0.17587 1.51134,6.63958 c 0.83124,3.65177 1.96033,7.88137 2.50908,9.39911 l 0.99774,2.75954 -7.4181,0.37485 c -4.07995,0.20617 -14.06598,0.54562 -22.19116,0.75433 l -14.77307,0.37948 z"
             id="path1992"
             transform="matrix(0.26458333,0,0,0.26458333,12.725204,30.468825)" /><path
             style="fill:#ececec;fill-opacity:1;fill-rule:evenodd;stroke:#ececec;stroke-width:0.343794;stroke-linecap:round;stroke-linejoin:round;stroke-dasharray:none;stroke-opacity:1"
             d="m 782.13752,377.62611 c 0.82771,-2.05038 4.32073,-16.19773 4.32073,-17.49973 0,-1.20554 0.81676,-1.25708 19.91874,-1.25708 h 19.91874 v 9.95937 9.95937 H 803.9821 c -20.98713,0 -22.28575,-0.0691 -21.84458,-1.16193 z"
             id="path1994"
             transform="matrix(0.26458333,0,0,0.26458333,12.725204,30.468825)" /></g><path
           style="fill:#ffffff;fill-opacity:1;fill-rule:evenodd;stroke:#6464ff;stroke-width:1.25472;stroke-linecap:round;stroke-linejoin:round;stroke-dasharray:none;stroke-opacity:1"
           d="m 786.79712,347.41602 c -0.15587,-0.45647 -0.61016,-2.77202 -1.00954,-5.14567 -0.39938,-2.37365 -0.87099,-4.80969 -1.04803,-5.41343 -0.28639,-0.97664 0.70411,-1.1231 8.98032,-1.32792 8.25893,-0.20439 9.44534,-0.37914 10.5783,-1.55813 1.98785,-2.06859 2.19658,-3.77075 0.75342,-6.14383 l -1.31091,-2.15564 H 792.1287 780.51673 l -1.09832,-2.15787 c -0.60407,-1.18682 -2.37805,-4.00182 -3.94218,-6.25556 -1.56413,-2.25373 -2.67106,-4.2705 -2.45985,-4.48171 0.21122,-0.21121 10.63529,-0.38402 23.16461,-0.38402 h 22.78058 l 1.09425,-1.67002 c 1.52278,-2.32406 1.36533,-4.7507 -0.43241,-6.66431 l -1.52665,-1.62504 h -28.42647 -28.42647 l -5.61553,-3.21989 c -6.46348,-3.7061 -13.73259,-6.25953 -21.18972,-7.44336 l -5.21065,-0.82719 0.24956,-16.66336 c 0.22636,-15.11482 0.3769,-16.94103 1.61985,-19.65118 1.99804,-4.35657 4.5072,-7.01488 8.41637,-8.91671 l 3.4553,-1.68101 41.99534,-0.45259 41.99534,-0.45259 v 52.56049 52.56049 h -19.93957 c -15.35788,0 -20.0047,-0.1907 -20.22299,-0.82995 z m 33.17109,-59.56823 c 1.49682,-1.65397 1.50669,-3.96732 0.0266,-6.22629 l -1.1553,-1.7632 h -36.80349 -36.80349 l -1.62971,1.62971 c -1.97396,1.97395 -2.0963,4.54328 -0.3018,6.33778 1.29621,1.29621 2.21319,1.32792 38.40666,1.32792 36.0273,0 37.11225,-0.037 38.26057,-1.30592 z m 0.35442,-23.42429 c 1.46626,-2.41107 1.23714,-4.01716 -0.90879,-6.37059 l -1.41759,-1.55466 -36.74253,0.22675 -36.74253,0.22674 -1.26906,1.56747 c -1.72567,2.13142 -1.59421,4.47535 0.36065,6.43021 l 1.62971,1.62972 h 36.88961 36.88961 z"
           id="path5191"
           transform="matrix(0.26458333,0,0,0.26458333,12.725204,30.468825)" /><path
           style="fill:#ffffff;fill-opacity:1;fill-rule:evenodd;stroke:#6464ff;stroke-width:1.25472;stroke-linecap:round;stroke-linejoin:round;stroke-dasharray:none;stroke-opacity:1"
           d="m 622.46062,295.70079 v -52.56464 l 41.33139,0.40401 c 25.78172,0.25201 42.23373,0.66741 43.72986,1.10415 3.75513,1.09615 7.67155,4.33276 9.85966,8.14821 l 2.0045,3.49527 0.006,17.36659 0.006,17.36659 -3.42381,0.4709 c -7.28405,1.00181 -17.1031,4.54992 -23.72708,8.57378 l -3.89635,2.36722 h -28.57031 -28.57031 l -1.71892,2.04281 c -2.06258,2.45125 -2.09847,2.97017 -0.39828,5.75869 l 1.31568,2.15787 h 22.80565 c 12.54311,0 22.96034,0.15469 23.1494,0.34374 0.18906,0.18906 -1.47914,3.16312 -3.7071,6.60901 l -4.05085,6.26527 -19.09855,0.0305 -19.09855,0.0305 -1.31092,2.15564 c -1.44309,2.37296 -1.23444,4.07506 0.75313,6.14384 1.1992,1.2482 2.29122,1.34036 18.1917,1.53536 l 16.91592,0.20744 -0.35488,1.45245 c -0.19518,0.7989 -0.73654,3.54398 -1.20303,6.10021 l -0.84816,4.64771 -20.04587,0.17572 -20.04587,0.17573 z m 83.19088,-7.37703 c 0.61265,-0.45647 1.3007,-1.78118 1.52901,-2.9438 0.33574,-1.70964 0.0893,-2.43967 -1.28879,-3.81776 l -1.7039,-1.7039 H 667.29821 630.4086 l -1.31092,2.15563 c -1.38278,2.27379 -1.2352,3.98366 0.51594,5.97785 0.94877,1.08046 3.61125,1.16193 37.97215,1.16193 28.52476,0 37.20587,-0.18928 38.06573,-0.82995 z m 0.24022,-23.44853 c 1.37962,-1.37961 1.62379,-2.10454 1.28292,-3.80887 -0.86458,-4.32289 1.21796,-4.09171 -39.14311,-4.34507 l -36.71292,-0.23046 -1.81875,2.16147 c -1.9682,2.33907 -1.94023,4.51545 0.087,6.76491 0.97329,1.08001 3.63993,1.16193 37.82405,1.16193 h 36.77695 z"
           id="path5193"
           transform="matrix(0.26458333,0,0,0.26458333,12.725204,30.468825)" /></g></g></g></svg>
