<?xml version="1.0" encoding="UTF-8" standalone="no"?>
<!-- Created with Inkscape (http://www.inkscape.org/) -->

<svg
   width="351.90765mm"
   height="39.422909mm"
   viewBox="0 0 351.90766 39.422909"
   version="1.1"
   id="svg5"
   xml:space="preserve"
   inkscape:version="1.2.2 (b0a8486541, 2022-12-01)"
   sodipodi:docname="inst.svg"
   xmlns:inkscape="http://www.inkscape.org/namespaces/inkscape"
   xmlns:sodipodi="http://sodipodi.sourceforge.net/DTD/sodipodi-0.dtd"
   xmlns="http://www.w3.org/2000/svg"
   xmlns:svg="http://www.w3.org/2000/svg"><sodipodi:namedview
     id="namedview7"
     pagecolor="#ffffff"
     bordercolor="#000000"
     borderopacity="0.25"
     inkscape:showpageshadow="2"
     inkscape:pageopacity="0.0"
     inkscape:pagecheckerboard="0"
     inkscape:deskcolor="#d1d1d1"
     inkscape:document-units="mm"
     showgrid="false"
     inkscape:zoom="0.88274134"
     inkscape:cx="721.61569"
     inkscape:cy="103.65437"
     inkscape:window-width="2194"
     inkscape:window-height="1155"
     inkscape:window-x="0"
     inkscape:window-y="0"
     inkscape:window-maximized="1"
     inkscape:current-layer="layer1" /><defs
     id="defs2" /><g
     inkscape:label="Layer 1"
     inkscape:groupmode="layer"
     id="layer1"
     transform="translate(159.5294,-133.73247)"><g
       id="g9374"><path
         style="fill:#9e9fa0;stroke-width:0.264583"
         d="m -125.13357,164.35282 c 0,-0.12534 0.29765,-0.22789 0.66145,-0.22789 0.36381,0 0.66147,0.0456 0.66147,0.10144 0,0.0558 -0.29766,0.15835 -0.66147,0.2279 -0.3638,0.0695 -0.66145,0.0239 -0.66145,-0.10145 z m -12.96458,-0.0656 c 0,-0.0563 0.3509,-0.15376 0.77978,-0.21671 0.42888,-0.0629 0.71951,-0.0169 0.64584,0.10226 -0.13111,0.21213 -1.42563,0.31606 -1.42562,0.11445 z m 2.27855,-0.11445 c -0.0737,-0.11919 0.21697,-0.1652 0.64584,-0.10226 0.42888,0.063 0.77977,0.16047 0.77977,0.21671 0,0.20161 -1.29452,0.0977 -1.42561,-0.11445 z m 13.13343,0.0343 c 0.25466,-0.0666 0.67138,-0.0666 0.92604,0 0.25466,0.0666 0.0463,0.121 -0.46302,0.121 -0.50932,0 -0.71768,-0.0545 -0.46302,-0.121 z m -17.13177,-4.50456 c -0.88637,-0.2132 -0.99602,-0.52371 -0.14061,-0.39816 0.44113,0.0647 0.80207,0.22326 0.80207,0.35227 0,0.129 -0.0298,0.22074 -0.0661,0.20386 -0.0364,-0.0169 -0.30427,-0.088 -0.59532,-0.15797 z m 19.44687,-0.11261 c 0,-0.12534 0.29765,-0.22789 0.66145,-0.22789 0.36381,0 0.66146,0.0456 0.66146,0.10144 0,0.0558 -0.29765,0.15835 -0.66146,0.2279 -0.3638,0.0695 -0.66145,0.0239 -0.66145,-0.10145 z m -22.15381,-0.14666 c 0.25743,-0.0671 0.61462,-0.0627 0.79374,0.01 0.17913,0.0725 -0.0315,0.12736 -0.46806,0.12197 -0.43656,-0.005 -0.58312,-0.0647 -0.32569,-0.13178 z m 24.60624,0 c 0.25743,-0.0671 0.61462,-0.0627 0.79375,0.01 0.17913,0.0725 -0.0315,0.12736 -0.46806,0.12197 -0.43656,-0.005 -0.58313,-0.0647 -0.32569,-0.13178 z m -25.85104,-5.56003 c -0.14358,-0.37709 -0.1132,-0.40748 0.14811,-0.14812 0.18082,0.17948 0.26212,0.39297 0.18065,0.47443 -0.0815,0.0815 -0.22941,-0.0654 -0.32876,-0.32631 z m 23.92777,-5.20811 c 0,-0.0572 0.18478,-0.17489 0.41062,-0.26156 0.23546,-0.0904 0.34166,-0.046 0.24897,0.10399 -0.15538,0.25141 -0.65959,0.37186 -0.65959,0.15757 z m -11.7893,-8.3876 c -0.0815,-0.13186 0.15651,-0.23974 0.52891,-0.23974 0.81069,0 0.87618,0.1508 0.14817,0.34118 -0.2909,0.0761 -0.59558,0.0304 -0.67708,-0.10144 z m 2.60008,-0.15851 c 0.25743,-0.0671 0.61462,-0.0627 0.79375,0.01 0.17913,0.0725 -0.0315,0.12736 -0.46806,0.12197 -0.43656,-0.005 -0.58312,-0.0647 -0.32569,-0.13178 z"
         id="path314"
         sodipodi:nodetypes="ssscsscssccsccsscscssssssscsccccccccccssssssssssssccccc" /><text
         xml:space="preserve"
         style="font-style:normal;font-variant:normal;font-weight:bold;font-stretch:normal;font-size:17.6389px;font-family:sans-serif;-inkscape-font-specification:'sans-serif Bold';text-align:center;text-anchor:middle;fill:#ffffff;fill-rule:evenodd;stroke-width:0.499999;stroke-linecap:round;stroke-linejoin:round"
         x="-92.541382"
         y="121.46056"
         id="text379"><tspan
           sodipodi:role="line"
           id="tspan377"
           style="font-style:normal;font-variant:normal;font-weight:bold;font-stretch:normal;font-family:sans-serif;-inkscape-font-specification:'sans-serif Bold';stroke-width:0.5"
           x="-92.541382"
           y="121.46056" /></text><g
         id="g1445"><rect
           style="fill:#f9ce0c;fill-opacity:1;fill-rule:evenodd;stroke-width:0.499999;stroke-linecap:round;stroke-linejoin:round"
           id="rect1434"
           width="38.607105"
           height="37.233448"
           x="-148.67036"
           y="134.97095" /><g
           id="g1377"><text
             xml:space="preserve"
             style="font-style:normal;font-variant:normal;font-weight:normal;font-stretch:normal;font-size:12.7px;font-family:sans-serif;-inkscape-font-specification:sans-serif;text-align:start;text-anchor:start;fill:#0051b4;fill-opacity:1;fill-rule:evenodd;stroke-width:0.499999;stroke-linecap:round;stroke-linejoin:round"
             x="-93.881943"
             y="143.56111"
             id="text383"
             transform="translate(-1.0000001e-6)"><tspan
               sodipodi:role="line"
               style="font-style:normal;font-variant:normal;font-weight:normal;font-stretch:normal;font-size:12.7px;font-family:sans-serif;-inkscape-font-specification:sans-serif;text-align:start;text-anchor:start;fill:#0051b4;fill-opacity:1;stroke-width:0.5"
               x="-93.881943"
               y="143.56111"
               id="tspan435"
               dy="0.079999998">Funded by</tspan><tspan
               sodipodi:role="line"
               style="font-style:normal;font-variant:normal;font-weight:normal;font-stretch:normal;font-size:12.7px;font-family:sans-serif;-inkscape-font-specification:sans-serif;text-align:start;text-anchor:start;fill:#0051b4;fill-opacity:1;stroke-width:0.5"
               x="-93.881943"
               y="159.43611"
               id="tspan439">the European Union</tspan></text><g
             id="g1247"
             transform="translate(-1.0000001e-6)"><path
               style="fill:#034da1;stroke-width:0.264583"
               d="m -159.5294,153.44392 v -19.71145 h 29.63334 29.63333 v 19.71145 19.71146 h -29.63333 -29.63334 z m 30.31414,14.27585 0.69435,0.45496 -0.17377,-0.7912 c -0.14025,-0.63857 -0.0574,-0.87274 0.42962,-1.21384 l 0.6034,-0.42264 h -0.80154 c -0.63105,0 -0.86031,-0.15477 -1.07783,-0.72761 l -0.27628,-0.7276 -0.29741,0.7276 c -0.22107,0.54083 -0.48587,0.73117 -1.03157,0.74149 l -0.73415,0.0139 0.58378,0.40761 c 0.46841,0.32705 0.55193,0.57267 0.42262,1.24289 -0.16098,0.83441 -0.16056,0.83477 0.40164,0.33739 0.53591,-0.47412 0.59593,-0.47617 1.25713,-0.0429 z m -7.55638,-1.77178 c 0.41832,-0.26125 0.63283,-0.26125 1.05115,0 0.74267,0.4638 0.81782,0.41654 0.53219,-0.33472 -0.20547,-0.54043 -0.15535,-0.72335 0.27113,-0.98969 0.71323,-0.44542 0.65694,-0.72861 -0.14482,-0.72861 -0.48214,0 -0.74857,-0.20245 -0.95758,-0.72761 l -0.28957,-0.7276 -0.25509,0.7276 c -0.18325,0.52266 -0.4352,0.72761 -0.89451,0.72761 -0.77538,0 -0.82136,0.28824 -0.11622,0.72861 0.42649,0.26634 0.4766,0.44926 0.27113,0.98969 -0.28563,0.75126 -0.21048,0.79852 0.53219,0.33472 z m 12.95286,-0.0589 c 0.28048,-0.33798 0.408,-0.33023 1.00528,0.0611 0.67753,0.44394 0.68242,0.44203 0.51424,-0.20112 -0.12134,-0.464 -0.008,-0.82126 0.39615,-1.25175 l 0.56594,-0.60243 h -0.83986 c -0.65497,0 -0.83987,-0.11306 -0.83987,-0.51355 0,-0.78613 -0.45169,-0.8895 -0.63827,-0.14608 -0.13306,0.53013 -0.33338,0.66136 -1.02041,0.66843 l -0.85486,0.009 0.6241,0.51994 c 0.47071,0.39215 0.58327,0.68263 0.45798,1.18183 -0.18413,0.7336 0.13368,0.87232 0.62958,0.2748 z m -17.59193,-4.68575 c 0.52098,-0.23738 0.75403,-0.23738 0.99141,0 0.51573,0.51573 0.7357,0.35017 0.4685,-0.35263 -0.20547,-0.54042 -0.15535,-0.72334 0.27113,-0.98969 0.70515,-0.44036 0.65917,-0.72861 -0.11622,-0.72861 -0.45931,0 -0.71126,-0.20494 -0.8945,-0.7276 l -0.2551,-0.72761 -0.28957,0.72761 c -0.20901,0.52516 -0.47543,0.7276 -0.95758,0.7276 -0.80176,0 -0.85805,0.2832 -0.14482,0.72861 0.42649,0.26635 0.4766,0.44927 0.27113,0.98969 -0.28883,0.75967 -0.2654,0.77227 0.65562,0.35263 z m 22.31625,-0.0138 c 0.25575,-0.25575 0.43356,-0.25575 0.84307,0 0.73516,0.45911 0.87404,0.40661 0.69864,-0.26409 -0.1029,-0.39351 0.0335,-0.7876 0.41214,-1.19063 l 0.56594,-0.60243 h -0.81118 c -0.65978,0 -0.84874,-0.1358 -1.01235,-0.7276 l -0.20115,-0.72761 -0.27548,0.72761 c -0.21635,0.57143 -0.44908,0.72949 -1.0843,0.73641 l -0.80882,0.009 0.6241,0.51994 c 0.47071,0.39214 0.58327,0.68262 0.45798,1.18182 -0.1792,0.71399 0.0718,0.85736 0.5914,0.33778 z m -23.0157,-6.38877 c 0.63836,0.41828 0.6429,0.4151 0.45834,-0.32025 -0.14923,-0.59459 -0.0641,-0.83681 0.42686,-1.21454 l 0.61327,-0.47182 -0.83121,-0.006 c -0.67936,-0.005 -0.86796,-0.13881 -1.03237,-0.73349 l -0.20115,-0.7276 -0.27548,0.7276 c -0.2168,0.57262 -0.44777,0.72886 -1.0843,0.73349 l -0.80882,0.006 0.61327,0.47182 c 0.49462,0.38054 0.57658,0.61799 0.42365,1.22732 -0.18782,0.74833 -0.18372,0.75137 0.43178,0.32026 0.57044,-0.39955 0.67428,-0.4006 1.26616,-0.0128 z m 24.67245,-0.0548 c 0.42092,-0.38093 0.52156,-0.37826 1.1453,0.0304 0.70877,0.4644 0.7931,0.3605 0.4373,-0.53883 -0.16152,-0.40829 -0.0515,-0.63455 0.48162,-0.99045 l 0.69097,-0.46128 -0.85487,-0.002 c -0.69049,-10e-4 -0.88677,-0.12892 -1.02087,-0.6632 -0.0913,-0.36369 -0.25926,-0.66135 -0.37323,-0.66135 -0.11397,0 -0.28192,0.29766 -0.37323,0.66146 -0.12556,0.50024 -0.34213,0.66361 -0.88858,0.67026 l -0.72256,0.009 0.5972,0.49816 c 0.49871,0.416 0.55433,0.61092 0.33728,1.18183 -0.29719,0.78167 -0.12125,0.86776 0.54366,0.26602 z m -22.9094,-6.35357 c 0.74304,0.48686 0.76428,0.46154 0.40526,-0.48279 -0.21137,-0.55593 -0.16507,-0.72263 0.26459,-0.95257 0.73123,-0.39135 0.64782,-0.78927 -0.16545,-0.78927 -0.46371,0 -0.7311,-0.17158 -0.82461,-0.52916 -0.0761,-0.29104 -0.22967,-0.52917 -0.34124,-0.52917 -0.11158,0 -0.26514,0.23813 -0.34125,0.52917 -0.0935,0.35758 -0.3609,0.52916 -0.82462,0.52916 -0.81326,0 -0.89668,0.39792 -0.16543,0.78927 0.42964,0.22994 0.47594,0.39664 0.26458,0.95257 -0.35903,0.94433 -0.33779,0.96965 0.40526,0.48279 0.61274,-0.40148 0.71017,-0.40148 1.32291,0 z m 22.10391,-0.16236 c 0.73812,0.46096 0.86021,0.39987 0.67506,-0.33781 -0.1223,-0.48728 -0.0273,-0.74272 0.36819,-0.98969 0.74788,-0.46706 0.66334,-0.73477 -0.23202,-0.73477 -0.6113,0 -0.80398,-0.14624 -0.95867,-0.7276 l -0.19359,-0.7276 -0.25402,0.7276 c -0.20318,0.58203 -0.41762,0.7276 -1.07183,0.7276 h -0.81782 l 0.58899,0.62695 c 0.45587,0.48526 0.54704,0.7992 0.40338,1.38907 l -0.18561,0.76211 0.58358,-0.51742 c 0.48268,-0.42796 0.67191,-0.46227 1.09436,-0.19844 z m -17.37198,-4.5715 0.66803,0.43771 -0.2293,-0.79952 c -0.19213,-0.66991 -0.13657,-0.86432 0.34273,-1.19931 0.5709,-0.39902 0.57061,-0.39983 -0.15054,-0.41369 -0.54436,-0.0105 -0.76351,-0.17701 -0.88858,-0.67533 -0.0913,-0.3638 -0.25926,-0.66146 -0.37323,-0.66146 -0.11397,0 -0.28193,0.29766 -0.37324,0.66146 -0.12555,0.50024 -0.34212,0.6636 -0.88858,0.67026 -0.72248,0.009 -0.7225,0.009 -0.16958,0.47115 0.39726,0.33216 0.49563,0.60907 0.34933,0.98339 -0.33769,0.86393 -0.27021,0.94934 0.40204,0.50887 0.58973,-0.38641 0.69813,-0.38505 1.31092,0.0165 z m 12.98327,0.0122 0.68671,0.44995 -0.28539,-0.75063 c -0.2491,-0.65519 -0.2079,-0.81025 0.32404,-1.21955 l 0.60943,-0.46893 -0.73415,-0.006 c -0.54957,-0.004 -0.80893,-0.18882 -1.03156,-0.73349 l -0.29741,-0.7276 -0.27629,0.7276 c -0.19817,0.52191 -0.46043,0.72761 -0.92767,0.72761 -0.63016,0 -0.6361,0.0169 -0.18215,0.5185 0.32263,0.3565 0.41565,0.73203 0.29773,1.20188 -0.16875,0.67233 -0.16101,0.67649 0.47924,0.25698 0.6009,-0.39372 0.70336,-0.39192 1.33747,0.0236 z m -6.52394,-1.79269 c 0.59883,0.39236 0.60874,0.38456 0.42774,-0.33662 -0.14902,-0.59372 -0.0613,-0.83363 0.44785,-1.22512 l 0.63314,-0.48681 -0.80882,-0.006 c -0.63633,-0.005 -0.86773,-0.16105 -1.0851,-0.73349 l -0.27628,-0.7276 -0.29741,0.7276 c -0.22207,0.54327 -0.48341,0.72984 -1.03157,0.73641 l -0.73415,0.009 0.60445,0.50403 c 0.47801,0.39859 0.56564,0.6587 0.41889,1.2434 -0.18339,0.73066 -0.17807,0.73439 0.45132,0.31648 0.57196,-0.37976 0.69942,-0.38192 1.24994,-0.0212 z"
               id="path304"
               sodipodi:nodetypes="cccccccccccsscsscsscsssccsssssscssssscssccsssccssccsssssscssssscssscsscsccssccsssccscsccsssssssssccsssccssssssssssssssssssssscsscsscssccssssssccssccccssccscssssscccssccscsccssscc" /></g><text
             xml:space="preserve"
             style="font-style:normal;font-variant:normal;font-weight:normal;font-stretch:normal;font-size:9.87778px;font-family:sans-serif;-inkscape-font-specification:sans-serif;text-align:start;text-anchor:start;fill:#0051b4;fill-opacity:1;fill-rule:evenodd;stroke-width:0.499999;stroke-linecap:round;stroke-linejoin:round"
             x="-94.636887"
             y="173.05659"
             id="text1261"><tspan
               sodipodi:role="line"
               id="tspan1259"
               style="font-size:9.87778px;fill:#646464;fill-opacity:1;stroke-width:0.5"
               x="-94.636887"
               y="173.05659">NextGenerationEU</tspan></text></g></g><g
         id="g9351"><g
           id="g1449"
           transform="translate(-100.54167)"><path
             style="fill:#f9ce0c;stroke-width:0.264583"
             d="m 142.91736,168.52628 -0.89805,-0.63441 -1.00965,0.51509 c -1.3702,0.69903 -1.42978,0.66283 -0.74166,-0.45059 l 0.59682,-0.96568 -0.84399,-0.75411 -0.84402,-0.75411 1.26096,-0.003 c 1.17568,-0.002 1.299,-0.0689 1.82343,-0.98275 l 0.56247,-0.98016 0.18597,1.10084 c 0.18046,1.06798 0.21896,1.10325 1.28962,1.18119 l 1.10363,0.0803 -0.96105,0.65033 c -0.96054,0.65 -0.96086,0.65085 -0.60703,1.65365 0.41068,1.164 0.30217,1.20456 -0.91744,0.34296 z m -6.71439,-7.6123 c -0.76347,-0.59386 -0.69616,-0.59937 -2.70633,0.22159 -0.45551,0.18603 -0.42826,0.083 0.19571,-0.73997 l 0.72488,-0.9561 -0.85717,-0.72332 -0.85717,-0.72333 1.22536,0.1369 c 1.18179,0.13202 1.24452,0.10338 1.76409,-0.80575 l 0.53869,-0.94263 0.181,0.96477 c 0.17031,0.90781 0.2458,0.9695 1.27862,1.04482 l 1.09766,0.08 -0.94028,0.58482 c -0.84069,0.52286 -0.92871,0.68403 -0.83095,1.52135 0.12692,1.08725 0.14245,1.08083 -0.8141,0.3368 z m 19.65095,-4.79595 v -3.5436 l 4.0349,-0.1048 c 4.60171,-0.11952 5.78815,-0.47114 7.2649,-2.1531 1.86108,-2.11966 1.75228,-5.6896 -0.22831,-7.49113 -0.83627,-0.76067 -2.02078,-1.3361 -3.20929,-1.55907 l -0.98303,-0.18442 v -3.67472 -3.67472 l 0.99218,0.005 c 1.72093,0.008 4.61061,0.75251 6.61501,1.7044 5.09236,2.41834 7.77052,7.98897 6.59913,13.72634 -0.55322,2.70972 -1.25621,4.1081 -3.02643,6.02015 -1.07043,1.15618 -2.01708,1.84525 -3.60387,2.6232 -2.9701,1.45618 -5.15188,1.85048 -10.23916,1.85048 h -4.21603 z m -20.14344,-3.60797 c -0.64804,-0.48401 -0.76325,-0.49239 -1.65365,-0.12036 -1.06055,0.44313 -1.24436,0.20564 -0.41898,-0.54133 l 0.53811,-0.48697 -0.73655,-0.60286 -0.73652,-0.60285 1.0632,-0.009 c 0.86973,-0.008 1.14456,-0.14192 1.5104,-0.73712 l 0.4472,-0.72761 0.17349,0.84573 c 0.15242,0.74304 0.29027,0.85548 1.13543,0.92604 l 0.96195,0.0803 -0.85268,0.46608 c -0.74448,0.40695 -0.83259,0.56639 -0.69453,1.25677 0.18541,0.92711 0.17132,0.93197 -0.73686,0.25368 z m 4.11853,-6.63524 c -0.11445,-0.1852 -0.57735,-0.22973 -1.25749,-0.12097 -1.05253,0.16831 -1.06608,0.16075 -0.61145,-0.34161 0.44588,-0.49268 0.44016,-0.53108 -0.13991,-0.93736 l -0.60481,-0.42364 h 0.85037 c 0.56383,0 0.96173,-0.17831 1.18086,-0.52917 0.41778,-0.66896 0.73234,-0.67799 0.73234,-0.021 0,0.35626 0.25241,0.56359 0.8445,0.69363 l 0.84447,0.18548 -0.68845,0.36072 c -0.4981,0.26099 -0.64992,0.50815 -0.54906,0.89388 0.14719,0.5628 -0.29324,0.73861 -0.60137,0.24006 z"
             id="path312"
             sodipodi:nodetypes="ccssccccscsscsscccsscccsscsscssccccssssccccssssscccssccccscsscssccsssscsssscssss" /><path
             style="fill:#d20d2b;stroke-width:0.264583"
             d="m 147.12267,155.82517 v -14.94895 h -3.43958 -3.43959 v -3.57188 -3.57187 h 10.85538 10.85538 l -0.0736,3.63802 -0.0736,3.63802 h -3.30729 -3.30729 l -0.0683,14.88281 -0.0684,14.88281 h -3.96653 -3.96655 z m 17.68062,9.84988 -3.61833,-5.08738 2.16312,-0.18166 c 1.18973,-0.0999 3.11082,-0.42885 4.26908,-0.73096 2.00962,-0.52416 2.12577,-0.52796 2.53844,-0.0829 0.55286,0.59616 7.92332,10.87593 7.92332,11.05081 0,0.0721 -2.17289,0.12855 -4.82865,0.12534 l -4.82864,-0.006 -3.61834,-5.08738 z"
             id="path308" /></g><text
           xml:space="preserve"
           style="font-style:normal;font-variant:normal;font-weight:bold;font-stretch:normal;font-size:9.87777px;font-family:sans-serif;-inkscape-font-specification:'sans-serif Bold';text-align:start;text-anchor:start;fill:#646464;fill-opacity:1;fill-rule:evenodd;stroke:none;stroke-width:0.499999;stroke-linecap:round;stroke-linejoin:round;stroke-opacity:1"
           x="84.305603"
           y="142.50394"
           id="text3010"><tspan
             sodipodi:role="line"
             id="tspan3008"
             style="fill:#646464;fill-opacity:1;stroke-width:0.5"
             x="84.305603"
             y="142.50394">Plan de Recuperación,</tspan><tspan
             sodipodi:role="line"
             style="fill:#646464;fill-opacity:1;stroke-width:0.5"
             x="84.305603"
             y="154.85115"
             id="tspan4464">Transformación</tspan><tspan
             sodipodi:role="line"
             style="fill:#646464;fill-opacity:1;stroke-width:0.5"
             x="84.305603"
             y="167.19836"
             id="tspan5192">y Resiliencia</tspan></text></g></g></g></svg>
